<svg width="99" height="80" viewBox="0 0 99 80" fill="none" xmlns="http://www.w3.org/2000/svg">
<path d="M2 21V78H97V21H2ZM2 2H97V21H2V2Z" stroke="#2D2D2D" stroke-width="2.31909"/>
<path d="M11.5001 13.0833C12.3745 13.0833 13.0834 12.3744 13.0834 11.5C13.0834 10.6255 12.3745 9.91663 11.5001 9.91663C10.6256 9.91663 9.91675 10.6255 9.91675 11.5C9.91675 12.3744 10.6256 13.0833 11.5001 13.0833Z" stroke="#2D2D2D" stroke-width="3.175"/>
<path d="M22.5834 13.0833C23.4578 13.0833 24.1667 12.3744 24.1667 11.5C24.1667 10.6255 23.4578 9.91663 22.5834 9.91663C21.7089 9.91663 21.0001 10.6255 21.0001 11.5C21.0001 12.3744 21.7089 13.0833 22.5834 13.0833Z" stroke="#2D2D2D" stroke-width="3.175"/>
<path d="M33.6667 13.0833C34.5412 13.0833 35.25 12.3744 35.25 11.5C35.25 10.6255 34.5412 9.91663 33.6667 9.91663C32.7923 9.91663 32.0834 10.6255 32.0834 11.5C32.0834 12.3744 32.7923 13.0833 33.6667 13.0833Z" stroke="#2D2D2D" stroke-width="3.175"/>
<path d="M63 67.2501H34L35.2083 40.6667H61.7917L63 67.2501Z" stroke="#202020" stroke-width="2" stroke-miterlimit="10"/>
<path d="M42.4583 45.5V37.0417C42.4583 35.4393 43.0948 33.9026 44.2279 32.7696C45.3609 31.6365 46.8976 31 48.5 31C49.2934 31 50.079 31.1563 50.812 31.4599C51.545 31.7635 52.2111 32.2085 52.7721 32.7696C53.3331 33.3306 53.7781 33.9966 54.0818 34.7296C54.3854 35.4626 54.5416 36.2483 54.5416 37.0417V45.5" stroke="#202020" stroke-width="2" stroke-miterlimit="10"/>
</svg>
