<svg width="52" height="52" viewBox="0 0 52 52" fill="none" xmlns="http://www.w3.org/2000/svg">
<path d="M25.9948 0C19.8196 0.00345689 13.8471 2.25866 9.1457 6.36215C4.44434 10.4656 1.32091 16.1497 0.334219 22.3973C-0.652477 28.645 0.561939 35.0486 3.7602 40.4626C6.95846 45.8766 11.9319 49.9477 17.7907 51.9475C19.0903 52.197 19.5781 51.365 19.5781 50.699V45.704C12.3487 47.2838 10.8057 42.5401 10.8057 42.5401C9.58747 39.4597 7.8815 38.6276 7.8815 38.6276C5.52572 36.9626 8.04352 37.0461 8.04352 37.0461C10.6428 37.2131 12.0238 39.7936 12.0238 39.7936C14.3796 43.873 18.1156 42.7071 19.5781 42.0411C19.6923 40.6893 20.2675 39.422 21.2027 38.4616C15.4358 37.7956 9.34315 35.4646 9.34315 25.3086C9.29519 22.6557 10.2566 20.0878 12.0238 18.1488C11.2566 15.839 11.3432 13.321 12.2673 11.0724C12.2673 11.0724 14.4602 10.3229 19.4152 13.8198C21.5328 13.2244 23.7176 12.9166 25.9134 12.9043C28.1096 12.9109 30.295 13.2188 32.4115 13.8198C37.3665 10.4064 39.5594 11.0724 39.5594 11.0724C40.4835 13.321 40.5701 15.839 39.8029 18.1488C41.5829 20.0796 42.5464 22.6531 42.4836 25.3086C42.4836 35.5481 36.3918 37.7965 30.6241 38.4625C31.2412 39.1075 31.7193 39.8783 32.0272 40.7249C32.3351 41.5715 32.466 42.4749 32.4115 43.3766V50.7025C32.4115 51.452 32.8984 52.2006 34.1989 51.9511C40.0603 49.9532 45.0365 45.8824 48.2369 40.4675C51.4372 35.0527 52.6528 28.6471 51.6658 22.3976C50.6789 16.1481 47.554 10.4626 42.8504 6.35879C38.1469 2.25502 32.1718 0.000925824 25.9948 0Z" fill="#2D2D2D"/>
</svg>
