<svg width="193" height="63" viewBox="0 0 193 63" fill="none" xmlns="http://www.w3.org/2000/svg">
<g clip-path="url(#clip0)">
<path d="M23.769 0.00463867H25.4853C31.4436 0.134073 37.3049 2.52861 41.5146 6.76757C39.9602 8.35318 38.3735 9.87398 36.8515 11.4596C34.4876 9.32389 31.638 7.67361 28.5292 7.09118C23.9309 6.12041 18.9763 6.99411 15.1228 9.61517C10.9131 12.3656 8.06346 17.0253 7.44818 22.0085C6.76811 26.927 8.16061 32.1044 11.3665 35.9227C14.4428 39.6439 19.1383 41.9737 23.9957 42.1355C28.5292 42.3944 33.257 41.003 36.5601 37.8318C39.1507 35.5991 40.3488 32.2014 40.7375 28.9009C35.3619 28.9009 29.9864 28.9332 24.6109 28.9009V22.235H47.2463C48.4121 29.3862 46.7282 37.4435 41.288 42.5562C37.6611 46.1804 32.6418 48.316 27.5253 48.7367C22.5708 49.222 17.4544 48.2837 13.0503 45.8891C7.77197 43.0739 3.56226 38.3172 1.48978 32.7192C-0.453177 27.5742 -0.485559 21.7496 1.32786 16.5722C2.97937 11.8479 6.15286 7.67361 10.233 4.76135C14.1513 1.88144 18.9116 0.295866 23.769 0.00463867Z" fill="#2D2D2D"/>
<path d="M153.623 1.68811H160.553V47.8962C158.254 47.8962 155.922 47.9285 153.623 47.8638C153.655 32.4935 153.623 17.0908 153.623 1.68811Z" fill="#2D2D2D"/>
<path d="M62.6603 17.7057C66.935 16.8967 71.5657 17.8028 75.095 20.3591C78.3007 22.6242 80.5357 26.1836 81.2157 30.0667C82.09 34.5646 80.9886 39.4831 78.0743 43.0425C74.9335 47.0226 69.7843 49.1583 64.765 48.8347C60.1668 48.5758 55.698 46.2784 52.9779 42.5247C49.9015 38.3829 49.1567 32.6877 50.8406 27.834C52.5245 22.6242 57.2847 18.6441 62.6603 17.7057ZM63.6317 23.8538C61.8831 24.3069 60.2639 25.31 59.0981 26.7338C55.9571 30.4874 56.1514 36.6031 59.6163 40.0979C61.5916 42.1041 64.5707 43.0425 67.3236 42.4924C69.8815 42.0394 72.1157 40.3244 73.3464 38.0593C75.4836 34.2086 74.8686 28.9018 71.5979 25.8924C69.4929 23.9509 66.4165 23.1419 63.6317 23.8538Z" fill="#2D2D2D"/>
<path d="M96.9858 17.7058C101.876 16.7673 107.219 18.1264 110.878 21.5564C116.836 26.8956 117.484 36.8944 112.4 43.0425C109.324 46.9256 104.336 49.0612 99.4143 48.8347C94.7193 48.7052 90.0886 46.3755 87.3036 42.5247C84.1622 38.2858 83.4822 32.4613 85.2636 27.5104C87.0443 22.4625 91.7072 18.6118 96.9858 17.7058ZM97.9572 23.8539C96.2086 24.3069 94.5893 25.31 93.4236 26.7014C90.315 30.3903 90.4443 36.409 93.78 39.9361C95.7551 42.0394 98.8315 43.0748 101.681 42.4924C104.207 42.007 106.474 40.3244 107.704 38.0593C109.809 34.1763 109.194 28.8694 105.891 25.8601C103.786 23.9186 100.71 23.142 97.9572 23.8539Z" fill="#2D2D2D"/>
<path d="M126.098 19.5824C129.821 17.2526 134.776 16.6054 138.791 18.6116C140.054 19.1617 141.091 20.1001 142.095 21.0385C142.127 20.1648 142.095 19.2588 142.127 18.3528C144.296 18.3852 146.466 18.3528 148.669 18.3852V46.9254C148.636 51.2291 147.535 55.7917 144.426 58.9304C141.026 62.3928 135.812 63.4606 131.117 62.7487C126.098 62.0045 121.726 58.348 119.783 53.7207C121.726 52.7823 123.766 52.0381 125.774 51.1644C126.907 53.8178 129.206 56.0829 132.089 56.6006C134.971 57.1183 138.306 56.4065 140.184 54.0119C142.192 51.5527 142.192 48.1874 142.095 45.178C140.605 46.6342 138.889 47.9285 136.816 48.4139C132.315 49.6759 127.361 48.1227 123.896 45.081C120.399 42.0393 118.326 37.3473 118.52 32.6876C118.617 27.4132 121.596 22.3329 126.098 19.5824ZM132.801 23.7243C130.826 24.0479 128.98 25.1481 127.717 26.6689C124.673 30.2931 124.673 36.0853 127.749 39.6447C129.498 41.748 132.315 42.9129 135.035 42.6217C137.594 42.3628 139.957 40.7449 141.221 38.5122C143.358 34.7262 143.001 29.5812 140.119 26.2806C138.339 24.242 135.489 23.2389 132.801 23.7243Z" fill="#2D2D2D"/>
<path d="M168.875 21.2328C172.761 17.6087 178.752 16.379 183.739 18.2882C188.466 20.0679 191.478 24.5657 193 29.193C185.973 32.1053 178.979 34.9852 171.951 37.8975C172.923 39.7419 174.412 41.4246 176.42 42.1041C179.237 43.1072 182.605 42.7513 184.969 40.8745C185.909 40.1626 186.653 39.2242 187.366 38.3182C189.146 39.5154 190.928 40.6804 192.709 41.8776C190.183 45.6635 185.941 48.317 181.375 48.7376C176.323 49.3524 170.948 47.4109 167.677 43.4632C162.301 37.2503 162.819 26.8308 168.875 21.2328ZM172.34 27.2192C171.239 28.8047 170.786 30.7462 170.818 32.6554C175.514 30.7139 180.209 28.7724 184.904 26.7985C184.127 24.9864 182.249 23.8862 180.339 23.595C177.262 23.0449 174.056 24.6952 172.34 27.2192Z" fill="#2D2D2D"/>
</g>
<defs>
<clipPath id="clip0">
<rect width="193" height="63" fill="white"/>
</clipPath>
</defs>
</svg>
