<svg width="55" height="51" viewBox="0 0 55 51" fill="none" xmlns="http://www.w3.org/2000/svg">
<path d="M0.988037 16.6797H12.1604V50.9999H0.988037V16.6797Z" fill="#2D2D2D"/>
<path d="M40.9924 15.5439C36.0938 15.5439 33.1723 17.3781 30.0786 21.3947V16.6794H18.9062V50.9996H30.1638V32.3985C30.1638 28.4685 32.1402 24.6261 36.6089 24.6261C41.0777 24.6261 43.7415 28.4685 43.7415 32.3109V50.9996H55V31.5257C55 17.9891 45.9763 15.5439 40.9924 15.5439Z" fill="#2D2D2D"/>
<path d="M6.61742 0C2.92233 0 0 2.70695 0 6.0259C0 9.34485 2.92233 12.0518 6.61742 12.0518C10.3125 12.0518 13.2348 9.34485 13.2348 6.0259C13.2348 2.70695 10.3125 0 6.61742 0Z" fill="#2D2D2D"/>
</svg>
