<svg width="281" height="149" viewBox="0 0 281 149" fill="none" xmlns="http://www.w3.org/2000/svg">
<rect x="18.7973" y="18.7973" width="258.405" height="125.405" fill="#2D2D2D" stroke="#2D2D2D" stroke-width="7.59459"/>
<rect x="3.7973" y="3.7973" width="258.216" height="125.311" fill="#FAFAFA" stroke="#2D2D2D" stroke-width="7.59459"/>
<path d="M85.1202 85.6838V64.5404C85.1202 54.6067 77.4649 48.1361 67.6223 48.1361C57.8708 48.1361 50.4889 54.9713 49.5775 64.3582L57.5974 65.6341C57.7797 59.2546 61.7896 54.6978 67.8045 54.6978C73.6372 54.6978 77.8294 58.7989 77.8294 64.5404V64.905C77.8294 66.1809 76.6446 67.1834 74.9131 67.4568L60.8783 70.0085C52.4938 71.5578 48.1193 76.2057 48.1193 82.7675C48.1193 90.4228 53.952 95.8909 62.701 95.8909C69.9918 95.8909 75.4599 92.6101 78.1028 87.3242L79.2876 94.7973H85.3025L85.1202 85.6838ZM64.1591 88.7824C59.0556 88.7824 56.1392 86.3217 56.1392 82.7675C56.1392 79.3955 58.3265 76.6614 62.701 75.8412L74.7308 73.654C76.0067 73.3805 77.1915 73.1983 77.8294 72.9249V75.8412C77.8294 83.132 71.7233 88.7824 64.1591 88.7824ZM96.0863 94.7973H103.377V32.8254H96.0863V94.7973ZM157.677 85.6838V32.8254H150.386V56.2471C146.741 51.1436 141.182 48.1361 134.438 48.1361C121.952 48.1361 112.474 58.4344 112.474 71.8313C112.474 85.3192 122.226 95.8909 134.802 95.8909C141.638 95.8909 147.288 92.7923 150.751 87.4154L151.662 94.7973H157.86L157.677 85.6838ZM135.531 88.6001C126.6 88.6001 120.13 81.5827 120.13 72.0135C120.13 62.2621 126.418 55.2447 135.167 55.2447C144.098 55.2447 150.569 62.2621 150.569 72.0135C150.569 81.765 144.372 88.6001 135.531 88.6001Z" fill="#2D2D2D"/>
<mask id="path-4-outside-1" maskUnits="userSpaceOnUse" x="167.31" y="45.4663" width="51" height="51" fill="black">
<rect fill="white" x="167.31" y="45.4663" width="51" height="51"/>
<path fill-rule="evenodd" clip-rule="evenodd" d="M183.689 93.0747L183.682 93.0716C180.896 91.8501 178.416 90.1704 176.255 88.0394L176.245 88.0296L176.235 88.0198C174.065 85.8348 172.368 83.3043 171.152 80.4457C169.918 77.5474 169.31 74.4562 169.31 71.1994C169.31 67.9457 169.917 64.8713 171.155 62.0069C172.366 59.1629 174.034 56.6411 176.155 54.4597L176.165 54.4497L176.175 54.4398C178.344 52.2548 180.857 50.5462 183.696 49.3211C186.574 48.0789 189.644 47.4663 192.878 47.4663C196.112 47.4663 199.182 48.0789 202.06 49.3211C204.895 50.5447 207.389 52.2524 209.521 54.4398C211.693 56.5866 213.389 59.0981 214.604 61.9531C215.838 64.8515 216.446 67.9427 216.446 71.1994C216.446 74.4562 215.838 77.5474 214.604 80.4457C213.387 83.3043 211.691 85.8348 209.521 88.0198C207.386 90.1694 204.892 91.8556 202.06 93.0778C199.182 94.3199 196.112 94.9325 192.878 94.9325C189.644 94.9325 186.574 94.3199 183.696 93.0778L183.689 93.0747ZM207.655 56.3188C205.765 54.3752 203.554 52.8567 201.02 51.7635C198.487 50.6702 195.773 50.1236 192.878 50.1236C189.983 50.1236 187.269 50.6702 184.735 51.7635C182.202 52.8567 179.971 54.3752 178.04 56.3188C176.151 58.2624 174.663 60.5097 173.577 63.0606C172.491 65.5711 171.949 68.284 171.949 71.1994C171.949 74.1148 172.491 76.848 173.577 79.399C174.663 81.9499 176.171 84.1972 178.101 86.1408C180.031 88.0439 182.242 89.5421 184.735 90.6354C187.269 91.7286 189.983 92.2753 192.878 92.2753C195.773 92.2753 198.487 91.7286 201.02 90.6354C203.554 89.5421 205.765 88.0439 207.655 86.1408C209.585 84.1972 211.093 81.9499 212.179 79.399C213.264 76.848 213.807 74.1148 213.807 71.1994C213.807 68.284 213.264 65.5508 212.179 62.9999C211.093 60.4489 209.585 58.2219 207.655 56.3188ZM184.971 66.9007L184.981 66.891C184.984 66.8876 184.989 66.8821 184.989 66.8821C184.99 66.8706 184.992 66.8523 184.992 66.8263C184.992 66.8004 184.99 66.7821 184.989 66.7705C184.989 66.7705 184.984 66.765 184.981 66.7617L184.971 66.752C184.956 66.7511 184.938 66.7504 184.916 66.7504C184.891 66.7504 184.872 66.7518 184.861 66.7532C184.861 66.7532 184.855 66.7584 184.852 66.7617C184.849 66.765 184.844 66.7705 184.844 66.7705C184.842 66.7821 184.841 66.8004 184.841 66.8263C184.841 66.8523 184.842 66.8706 184.844 66.8821C184.844 66.8821 184.849 66.8876 184.852 66.891C184.855 66.8943 184.861 66.8995 184.861 66.8995C184.872 66.9008 184.891 66.9023 184.916 66.9023C184.938 66.9023 184.956 66.9016 184.971 66.9007ZM200.912 66.8991C200.893 66.9009 200.869 66.9023 200.839 66.9023C200.814 66.9023 200.796 66.9008 200.784 66.8995C200.784 66.8995 200.779 66.8943 200.775 66.891C200.772 66.8876 200.767 66.8821 200.767 66.8821C200.765 66.8706 200.764 66.8523 200.764 66.8263C200.764 66.8004 200.765 66.7821 200.767 66.7705C200.767 66.7705 200.772 66.765 200.775 66.7617C200.779 66.7584 200.784 66.7532 200.784 66.7532C200.796 66.7518 200.814 66.7504 200.839 66.7504C200.865 66.7504 200.883 66.7518 200.895 66.7532C200.895 66.7532 200.9 66.7584 200.904 66.7617C200.907 66.765 200.912 66.7705 200.912 66.7705C200.913 66.7821 200.915 66.8004 200.915 66.8263C200.915 66.8559 200.914 66.88 200.912 66.8991ZM200.417 75.0259L202.528 76.1799C202.526 76.1845 202.523 76.1891 202.521 76.1938C202.436 76.3578 202.349 76.5187 202.261 76.6764C201.904 77.3134 201.525 77.8996 201.123 78.4351C200.606 79.1231 200.051 79.7274 199.458 80.2481C197.613 81.8685 195.4 82.6788 192.818 82.6788C190.502 82.6788 188.482 82.0143 186.758 80.6854C185.966 80.0752 185.237 79.3249 184.57 78.4345C184.251 78.0092 183.947 77.5519 183.657 77.0627C183.489 76.7791 183.326 76.4849 183.167 76.1799L185.218 75.0259C185.228 75.0449 185.238 75.064 185.249 75.0829C185.301 75.1805 185.355 75.2765 185.409 75.371C186.198 76.7398 187.157 77.7887 188.288 78.5176C189.576 79.3481 191.086 79.7634 192.818 79.7634C194.741 79.7634 196.397 79.2389 197.786 78.19C198.799 77.425 199.671 76.381 200.4 75.058C200.405 75.0473 200.411 75.0366 200.417 75.0259ZM186.846 68.7699C186.364 69.2963 185.721 69.5595 184.916 69.5595C184.152 69.5595 183.509 69.2963 182.986 68.7699C182.464 68.2435 182.202 67.5957 182.202 66.8263C182.202 66.057 182.464 65.4091 182.986 64.8827C183.509 64.3563 184.152 64.0932 184.916 64.0932C185.721 64.0932 186.364 64.3563 186.846 64.8827C187.369 65.4091 187.631 66.057 187.631 66.8263C187.631 67.5957 187.369 68.2435 186.846 68.7699ZM202.77 68.8307C202.247 69.3166 201.603 69.5595 200.839 69.5595C200.075 69.5595 199.432 69.2963 198.909 68.7699C198.387 68.2435 198.125 67.5957 198.125 66.8263C198.125 66.057 198.387 65.4091 198.909 64.8827C199.432 64.3563 200.075 64.0932 200.839 64.0932C201.603 64.0932 202.247 64.3563 202.77 64.8827C203.292 65.4091 203.554 66.057 203.554 66.8263C203.554 67.6362 203.292 68.3043 202.77 68.8307Z"/>
</mask>
<path fill-rule="evenodd" clip-rule="evenodd" d="M183.689 93.0747L183.682 93.0716C180.896 91.8501 178.416 90.1704 176.255 88.0394L176.245 88.0296L176.235 88.0198C174.065 85.8348 172.368 83.3043 171.152 80.4457C169.918 77.5474 169.31 74.4562 169.31 71.1994C169.31 67.9457 169.917 64.8713 171.155 62.0069C172.366 59.1629 174.034 56.6411 176.155 54.4597L176.165 54.4497L176.175 54.4398C178.344 52.2548 180.857 50.5462 183.696 49.3211C186.574 48.0789 189.644 47.4663 192.878 47.4663C196.112 47.4663 199.182 48.0789 202.06 49.3211C204.895 50.5447 207.389 52.2524 209.521 54.4398C211.693 56.5866 213.389 59.0981 214.604 61.9531C215.838 64.8515 216.446 67.9427 216.446 71.1994C216.446 74.4562 215.838 77.5474 214.604 80.4457C213.387 83.3043 211.691 85.8348 209.521 88.0198C207.386 90.1694 204.892 91.8556 202.06 93.0778C199.182 94.3199 196.112 94.9325 192.878 94.9325C189.644 94.9325 186.574 94.3199 183.696 93.0778L183.689 93.0747ZM207.655 56.3188C205.765 54.3752 203.554 52.8567 201.02 51.7635C198.487 50.6702 195.773 50.1236 192.878 50.1236C189.983 50.1236 187.269 50.6702 184.735 51.7635C182.202 52.8567 179.971 54.3752 178.04 56.3188C176.151 58.2624 174.663 60.5097 173.577 63.0606C172.491 65.5711 171.949 68.284 171.949 71.1994C171.949 74.1148 172.491 76.848 173.577 79.399C174.663 81.9499 176.171 84.1972 178.101 86.1408C180.031 88.0439 182.242 89.5421 184.735 90.6354C187.269 91.7286 189.983 92.2753 192.878 92.2753C195.773 92.2753 198.487 91.7286 201.02 90.6354C203.554 89.5421 205.765 88.0439 207.655 86.1408C209.585 84.1972 211.093 81.9499 212.179 79.399C213.264 76.848 213.807 74.1148 213.807 71.1994C213.807 68.284 213.264 65.5508 212.179 62.9999C211.093 60.4489 209.585 58.2219 207.655 56.3188ZM184.971 66.9007L184.981 66.891C184.984 66.8876 184.989 66.8821 184.989 66.8821C184.99 66.8706 184.992 66.8523 184.992 66.8263C184.992 66.8004 184.99 66.7821 184.989 66.7705C184.989 66.7705 184.984 66.765 184.981 66.7617L184.971 66.752C184.956 66.7511 184.938 66.7504 184.916 66.7504C184.891 66.7504 184.872 66.7518 184.861 66.7532C184.861 66.7532 184.855 66.7584 184.852 66.7617C184.849 66.765 184.844 66.7705 184.844 66.7705C184.842 66.7821 184.841 66.8004 184.841 66.8263C184.841 66.8523 184.842 66.8706 184.844 66.8821C184.844 66.8821 184.849 66.8876 184.852 66.891C184.855 66.8943 184.861 66.8995 184.861 66.8995C184.872 66.9008 184.891 66.9023 184.916 66.9023C184.938 66.9023 184.956 66.9016 184.971 66.9007ZM200.912 66.8991C200.893 66.9009 200.869 66.9023 200.839 66.9023C200.814 66.9023 200.796 66.9008 200.784 66.8995C200.784 66.8995 200.779 66.8943 200.775 66.891C200.772 66.8876 200.767 66.8821 200.767 66.8821C200.765 66.8706 200.764 66.8523 200.764 66.8263C200.764 66.8004 200.765 66.7821 200.767 66.7705C200.767 66.7705 200.772 66.765 200.775 66.7617C200.779 66.7584 200.784 66.7532 200.784 66.7532C200.796 66.7518 200.814 66.7504 200.839 66.7504C200.865 66.7504 200.883 66.7518 200.895 66.7532C200.895 66.7532 200.9 66.7584 200.904 66.7617C200.907 66.765 200.912 66.7705 200.912 66.7705C200.913 66.7821 200.915 66.8004 200.915 66.8263C200.915 66.8559 200.914 66.88 200.912 66.8991ZM200.417 75.0259L202.528 76.1799C202.526 76.1845 202.523 76.1891 202.521 76.1938C202.436 76.3578 202.349 76.5187 202.261 76.6764C201.904 77.3134 201.525 77.8996 201.123 78.4351C200.606 79.1231 200.051 79.7274 199.458 80.2481C197.613 81.8685 195.4 82.6788 192.818 82.6788C190.502 82.6788 188.482 82.0143 186.758 80.6854C185.966 80.0752 185.237 79.3249 184.57 78.4345C184.251 78.0092 183.947 77.5519 183.657 77.0627C183.489 76.7791 183.326 76.4849 183.167 76.1799L185.218 75.0259C185.228 75.0449 185.238 75.064 185.249 75.0829C185.301 75.1805 185.355 75.2765 185.409 75.371C186.198 76.7398 187.157 77.7887 188.288 78.5176C189.576 79.3481 191.086 79.7634 192.818 79.7634C194.741 79.7634 196.397 79.2389 197.786 78.19C198.799 77.425 199.671 76.381 200.4 75.058C200.405 75.0473 200.411 75.0366 200.417 75.0259ZM186.846 68.7699C186.364 69.2963 185.721 69.5595 184.916 69.5595C184.152 69.5595 183.509 69.2963 182.986 68.7699C182.464 68.2435 182.202 67.5957 182.202 66.8263C182.202 66.057 182.464 65.4091 182.986 64.8827C183.509 64.3563 184.152 64.0932 184.916 64.0932C185.721 64.0932 186.364 64.3563 186.846 64.8827C187.369 65.4091 187.631 66.057 187.631 66.8263C187.631 67.5957 187.369 68.2435 186.846 68.7699ZM202.77 68.8307C202.247 69.3166 201.603 69.5595 200.839 69.5595C200.075 69.5595 199.432 69.2963 198.909 68.7699C198.387 68.2435 198.125 67.5957 198.125 66.8263C198.125 66.057 198.387 65.4091 198.909 64.8827C199.432 64.3563 200.075 64.0932 200.839 64.0932C201.603 64.0932 202.247 64.3563 202.77 64.8827C203.292 65.4091 203.554 66.057 203.554 66.8263C203.554 67.6362 203.292 68.3043 202.77 68.8307Z" fill="#2D2D2D"/>
<path fill-rule="evenodd" clip-rule="evenodd" d="M183.689 93.0747L183.682 93.0716C180.896 91.8501 178.416 90.1704 176.255 88.0394L176.245 88.0296L176.235 88.0198C174.065 85.8348 172.368 83.3043 171.152 80.4457C169.918 77.5474 169.31 74.4562 169.31 71.1994C169.31 67.9457 169.917 64.8713 171.155 62.0069C172.366 59.1629 174.034 56.6411 176.155 54.4597L176.165 54.4497L176.175 54.4398C178.344 52.2548 180.857 50.5462 183.696 49.3211C186.574 48.0789 189.644 47.4663 192.878 47.4663C196.112 47.4663 199.182 48.0789 202.06 49.3211C204.895 50.5447 207.389 52.2524 209.521 54.4398C211.693 56.5866 213.389 59.0981 214.604 61.9531C215.838 64.8515 216.446 67.9427 216.446 71.1994C216.446 74.4562 215.838 77.5474 214.604 80.4457C213.387 83.3043 211.691 85.8348 209.521 88.0198C207.386 90.1694 204.892 91.8556 202.06 93.0778C199.182 94.3199 196.112 94.9325 192.878 94.9325C189.644 94.9325 186.574 94.3199 183.696 93.0778L183.689 93.0747ZM207.655 56.3188C205.765 54.3752 203.554 52.8567 201.02 51.7635C198.487 50.6702 195.773 50.1236 192.878 50.1236C189.983 50.1236 187.269 50.6702 184.735 51.7635C182.202 52.8567 179.971 54.3752 178.04 56.3188C176.151 58.2624 174.663 60.5097 173.577 63.0606C172.491 65.5711 171.949 68.284 171.949 71.1994C171.949 74.1148 172.491 76.848 173.577 79.399C174.663 81.9499 176.171 84.1972 178.101 86.1408C180.031 88.0439 182.242 89.5421 184.735 90.6354C187.269 91.7286 189.983 92.2753 192.878 92.2753C195.773 92.2753 198.487 91.7286 201.02 90.6354C203.554 89.5421 205.765 88.0439 207.655 86.1408C209.585 84.1972 211.093 81.9499 212.179 79.399C213.264 76.848 213.807 74.1148 213.807 71.1994C213.807 68.284 213.264 65.5508 212.179 62.9999C211.093 60.4489 209.585 58.2219 207.655 56.3188ZM184.971 66.9007L184.981 66.891C184.984 66.8876 184.989 66.8821 184.989 66.8821C184.99 66.8706 184.992 66.8523 184.992 66.8263C184.992 66.8004 184.99 66.7821 184.989 66.7705C184.989 66.7705 184.984 66.765 184.981 66.7617L184.971 66.752C184.956 66.7511 184.938 66.7504 184.916 66.7504C184.891 66.7504 184.872 66.7518 184.861 66.7532C184.861 66.7532 184.855 66.7584 184.852 66.7617C184.849 66.765 184.844 66.7705 184.844 66.7705C184.842 66.7821 184.841 66.8004 184.841 66.8263C184.841 66.8523 184.842 66.8706 184.844 66.8821C184.844 66.8821 184.849 66.8876 184.852 66.891C184.855 66.8943 184.861 66.8995 184.861 66.8995C184.872 66.9008 184.891 66.9023 184.916 66.9023C184.938 66.9023 184.956 66.9016 184.971 66.9007ZM200.912 66.8991C200.893 66.9009 200.869 66.9023 200.839 66.9023C200.814 66.9023 200.796 66.9008 200.784 66.8995C200.784 66.8995 200.779 66.8943 200.775 66.891C200.772 66.8876 200.767 66.8821 200.767 66.8821C200.765 66.8706 200.764 66.8523 200.764 66.8263C200.764 66.8004 200.765 66.7821 200.767 66.7705C200.767 66.7705 200.772 66.765 200.775 66.7617C200.779 66.7584 200.784 66.7532 200.784 66.7532C200.796 66.7518 200.814 66.7504 200.839 66.7504C200.865 66.7504 200.883 66.7518 200.895 66.7532C200.895 66.7532 200.9 66.7584 200.904 66.7617C200.907 66.765 200.912 66.7705 200.912 66.7705C200.913 66.7821 200.915 66.8004 200.915 66.8263C200.915 66.8559 200.914 66.88 200.912 66.8991ZM200.417 75.0259L202.528 76.1799C202.526 76.1845 202.523 76.1891 202.521 76.1938C202.436 76.3578 202.349 76.5187 202.261 76.6764C201.904 77.3134 201.525 77.8996 201.123 78.4351C200.606 79.1231 200.051 79.7274 199.458 80.2481C197.613 81.8685 195.4 82.6788 192.818 82.6788C190.502 82.6788 188.482 82.0143 186.758 80.6854C185.966 80.0752 185.237 79.3249 184.57 78.4345C184.251 78.0092 183.947 77.5519 183.657 77.0627C183.489 76.7791 183.326 76.4849 183.167 76.1799L185.218 75.0259C185.228 75.0449 185.238 75.064 185.249 75.0829C185.301 75.1805 185.355 75.2765 185.409 75.371C186.198 76.7398 187.157 77.7887 188.288 78.5176C189.576 79.3481 191.086 79.7634 192.818 79.7634C194.741 79.7634 196.397 79.2389 197.786 78.19C198.799 77.425 199.671 76.381 200.4 75.058C200.405 75.0473 200.411 75.0366 200.417 75.0259ZM186.846 68.7699C186.364 69.2963 185.721 69.5595 184.916 69.5595C184.152 69.5595 183.509 69.2963 182.986 68.7699C182.464 68.2435 182.202 67.5957 182.202 66.8263C182.202 66.057 182.464 65.4091 182.986 64.8827C183.509 64.3563 184.152 64.0932 184.916 64.0932C185.721 64.0932 186.364 64.3563 186.846 64.8827C187.369 65.4091 187.631 66.057 187.631 66.8263C187.631 67.5957 187.369 68.2435 186.846 68.7699ZM202.77 68.8307C202.247 69.3166 201.603 69.5595 200.839 69.5595C200.075 69.5595 199.432 69.2963 198.909 68.7699C198.387 68.2435 198.125 67.5957 198.125 66.8263C198.125 66.057 198.387 65.4091 198.909 64.8827C199.432 64.3563 200.075 64.0932 200.839 64.0932C201.603 64.0932 202.247 64.3563 202.77 64.8827C203.292 65.4091 203.554 66.057 203.554 66.8263C203.554 67.6362 203.292 68.3043 202.77 68.8307Z" stroke="#2D2D2D" stroke-width="2.84797" mask="url(#path-4-outside-1)"/>
<rect x="3.7973" y="3.7973" width="258.216" height="125.311" fill="#FAFAFA" stroke="#2D2D2D" stroke-width="7.59459"/>
<path d="M85.1202 85.6838V64.5404C85.1202 54.6067 77.4649 48.1361 67.6223 48.1361C57.8708 48.1361 50.4889 54.9713 49.5775 64.3582L57.5974 65.6341C57.7797 59.2546 61.7896 54.6978 67.8045 54.6978C73.6372 54.6978 77.8294 58.7989 77.8294 64.5404V64.905C77.8294 66.1809 76.6446 67.1834 74.9131 67.4568L60.8783 70.0085C52.4938 71.5578 48.1193 76.2057 48.1193 82.7675C48.1193 90.4228 53.952 95.8909 62.701 95.8909C69.9918 95.8909 75.4599 92.6101 78.1028 87.3242L79.2876 94.7973H85.3025L85.1202 85.6838ZM64.1591 88.7824C59.0556 88.7824 56.1392 86.3217 56.1392 82.7675C56.1392 79.3955 58.3265 76.6614 62.701 75.8412L74.7308 73.654C76.0067 73.3805 77.1915 73.1983 77.8294 72.9249V75.8412C77.8294 83.132 71.7233 88.7824 64.1591 88.7824ZM96.0863 94.7973H103.377V32.8254H96.0863V94.7973ZM157.677 85.6838V32.8254H150.386V56.2471C146.741 51.1436 141.182 48.1361 134.438 48.1361C121.952 48.1361 112.474 58.4344 112.474 71.8313C112.474 85.3192 122.226 95.8909 134.802 95.8909C141.638 95.8909 147.288 92.7923 150.751 87.4154L151.662 94.7973H157.86L157.677 85.6838ZM135.531 88.6001C126.6 88.6001 120.13 81.5827 120.13 72.0135C120.13 62.2621 126.418 55.2447 135.167 55.2447C144.098 55.2447 150.569 62.2621 150.569 72.0135C150.569 81.765 144.372 88.6001 135.531 88.6001Z" fill="#2D2D2D"/>
<path d="M262 0H266.5L273.75 7.5L281 15V19H262V0Z" fill="#2D2D2D"/>
<path d="M0 126H4.5H19V143.368V148H15L7.5 140.763L0 133.526V126Z" fill="#2D2D2D"/>
<circle cx="198.5" cy="64.5" r="30.5" fill="#FAFAFA"/>
<mask id="path-10-outside-2" maskUnits="userSpaceOnUse" x="166" y="32" width="65" height="65" fill="black">
<rect fill="white" x="166" y="32" width="65" height="65"/>
<path fill-rule="evenodd" clip-rule="evenodd" d="M186.608 92.6125L186.599 92.6085C182.994 91.0387 179.784 88.88 176.987 86.1415L176.975 86.1289L176.962 86.1162C174.154 83.3082 171.958 80.0563 170.384 76.3826C168.787 72.6579 168 68.6854 168 64.5C168 60.3185 168.786 56.3676 170.387 52.6864C171.955 49.0316 174.113 45.7908 176.858 42.9874L176.871 42.9745L176.884 42.9618C179.692 40.1538 182.944 37.958 186.617 36.3836C190.342 34.7873 194.315 34 198.5 34C202.685 34 206.658 34.7873 210.383 36.3836C214.052 37.9561 217.279 40.1507 220.038 42.9618C222.849 45.7208 225.044 48.9483 226.616 52.6174C228.213 56.3421 229 60.3147 229 64.5C229 68.6854 228.213 72.6579 226.616 76.3826C225.042 80.0563 222.846 83.3082 220.038 86.1162C217.276 88.8788 214.048 91.0457 210.383 92.6164C206.658 94.2127 202.685 95 198.5 95C194.315 95 190.342 94.2127 186.617 92.6164L186.608 92.6125ZM217.623 45.3765C215.178 42.8788 212.316 40.9274 209.037 39.5224C205.759 38.1174 202.247 37.4149 198.5 37.4149C194.753 37.4149 191.241 38.1174 187.963 39.5224C184.684 40.9274 181.796 42.8788 179.298 45.3765C176.853 47.8743 174.927 50.7623 173.522 54.0406C172.117 57.2669 171.415 60.7534 171.415 64.5C171.415 68.2466 172.117 71.7591 173.522 75.0374C174.927 78.3157 176.879 81.2038 179.377 83.7015C181.874 86.1473 184.736 88.0726 187.963 89.4776C191.241 90.8826 194.753 91.5851 198.5 91.5851C202.247 91.5851 205.759 90.8826 209.037 89.4776C212.316 88.0726 215.178 86.1473 217.623 83.7015C220.121 81.2038 222.073 78.3157 223.478 75.0374C224.883 71.7591 225.585 68.2466 225.585 64.5C225.585 60.7534 224.883 57.2409 223.478 53.9626C222.073 50.6843 220.121 47.8222 217.623 45.3765ZM188.267 58.9756L188.28 58.9631C188.284 58.9588 188.288 58.955 188.291 58.9517C188.292 58.9369 188.294 58.9134 188.294 58.88C188.294 58.8467 188.292 58.8232 188.291 58.8083C188.288 58.805 188.284 58.8012 188.28 58.797L188.267 58.7845C188.248 58.7833 188.225 58.7825 188.197 58.7825C188.163 58.7825 188.14 58.7843 188.125 58.786C188.122 58.7891 188.118 58.7927 188.114 58.797C188.109 58.8012 188.106 58.805 188.103 58.8084C188.101 58.8232 188.099 58.8467 188.099 58.88C188.099 58.9134 188.101 58.9369 188.103 58.9517C188.106 58.9551 188.109 58.9588 188.114 58.9631C188.118 58.9674 188.122 58.971 188.125 58.9741C188.14 58.9758 188.163 58.9776 188.197 58.9776C188.225 58.9776 188.248 58.9768 188.267 58.9756ZM208.897 58.9735C208.873 58.9758 208.842 58.9776 208.803 58.9776C208.77 58.9776 208.746 58.9758 208.732 58.9741C208.728 58.971 208.724 58.9674 208.72 58.9631C208.716 58.9588 208.712 58.9551 208.709 58.9517C208.708 58.9369 208.706 58.9134 208.706 58.88C208.706 58.8467 208.707 58.8232 208.709 58.8083C208.712 58.805 208.716 58.8012 208.72 58.797C208.724 58.7927 208.728 58.7891 208.732 58.786C208.746 58.7843 208.77 58.7825 208.803 58.7825C208.837 58.7825 208.86 58.7843 208.875 58.786C208.878 58.7891 208.882 58.7927 208.886 58.797C208.891 58.8012 208.894 58.805 208.897 58.8083C208.899 58.8232 208.901 58.8467 208.901 58.88C208.901 58.918 208.899 58.949 208.897 58.9735ZM208.257 69.4175L210.989 70.9005C210.986 70.9065 210.983 70.9124 210.979 70.9184C210.869 71.1291 210.757 71.3359 210.642 71.5386C210.181 72.3572 209.691 73.1106 209.17 73.7988C208.501 74.6829 207.783 75.4595 207.016 76.1287C204.628 78.2112 201.763 79.2524 198.422 79.2524C195.425 79.2524 192.811 78.3985 190.579 76.6906C189.555 75.9065 188.611 74.9422 187.748 73.798C187.336 73.2514 186.942 72.6638 186.567 72.035C186.35 71.6707 186.138 71.2925 185.933 70.9005L188.587 69.4175C188.6 69.442 188.613 69.4664 188.627 69.4908C188.695 69.6162 188.764 69.7396 188.835 69.861C189.855 71.6201 191.097 72.968 192.56 73.9048C194.226 74.9721 196.18 75.5058 198.422 75.5058C200.911 75.5058 203.054 74.8318 204.852 73.4837C206.163 72.5006 207.291 71.1589 208.234 69.4588C208.242 69.445 208.249 69.4313 208.257 69.4175ZM190.694 61.3778C190.07 62.0543 189.237 62.3925 188.197 62.3925C187.208 62.3925 186.375 62.0543 185.699 61.3778C185.023 60.7013 184.684 59.8687 184.684 58.88C184.684 57.8913 185.023 57.0588 185.699 56.3823C186.375 55.7058 187.208 55.3676 188.197 55.3676C189.237 55.3676 190.07 55.7058 190.694 56.3823C191.371 57.0588 191.709 57.8913 191.709 58.88C191.709 59.8687 191.371 60.7013 190.694 61.3778ZM211.301 61.4559C210.625 62.0803 209.792 62.3925 208.803 62.3925C207.815 62.3925 206.982 62.0543 206.306 61.3778C205.629 60.7013 205.291 59.8687 205.291 58.88C205.291 57.8913 205.629 57.0588 206.306 56.3823C206.982 55.7058 207.815 55.3676 208.803 55.3676C209.792 55.3676 210.625 55.7058 211.301 56.3823C211.977 57.0588 212.316 57.8913 212.316 58.88C212.316 59.9208 211.977 60.7794 211.301 61.4559Z"/>
</mask>
<path fill-rule="evenodd" clip-rule="evenodd" d="M186.608 92.6125L186.599 92.6085C182.994 91.0387 179.784 88.88 176.987 86.1415L176.975 86.1289L176.962 86.1162C174.154 83.3082 171.958 80.0563 170.384 76.3826C168.787 72.6579 168 68.6854 168 64.5C168 60.3185 168.786 56.3676 170.387 52.6864C171.955 49.0316 174.113 45.7908 176.858 42.9874L176.871 42.9745L176.884 42.9618C179.692 40.1538 182.944 37.958 186.617 36.3836C190.342 34.7873 194.315 34 198.5 34C202.685 34 206.658 34.7873 210.383 36.3836C214.052 37.9561 217.279 40.1507 220.038 42.9618C222.849 45.7208 225.044 48.9483 226.616 52.6174C228.213 56.3421 229 60.3147 229 64.5C229 68.6854 228.213 72.6579 226.616 76.3826C225.042 80.0563 222.846 83.3082 220.038 86.1162C217.276 88.8788 214.048 91.0457 210.383 92.6164C206.658 94.2127 202.685 95 198.5 95C194.315 95 190.342 94.2127 186.617 92.6164L186.608 92.6125ZM217.623 45.3765C215.178 42.8788 212.316 40.9274 209.037 39.5224C205.759 38.1174 202.247 37.4149 198.5 37.4149C194.753 37.4149 191.241 38.1174 187.963 39.5224C184.684 40.9274 181.796 42.8788 179.298 45.3765C176.853 47.8743 174.927 50.7623 173.522 54.0406C172.117 57.2669 171.415 60.7534 171.415 64.5C171.415 68.2466 172.117 71.7591 173.522 75.0374C174.927 78.3157 176.879 81.2038 179.377 83.7015C181.874 86.1473 184.736 88.0726 187.963 89.4776C191.241 90.8826 194.753 91.5851 198.5 91.5851C202.247 91.5851 205.759 90.8826 209.037 89.4776C212.316 88.0726 215.178 86.1473 217.623 83.7015C220.121 81.2038 222.073 78.3157 223.478 75.0374C224.883 71.7591 225.585 68.2466 225.585 64.5C225.585 60.7534 224.883 57.2409 223.478 53.9626C222.073 50.6843 220.121 47.8222 217.623 45.3765ZM188.267 58.9756L188.28 58.9631C188.284 58.9588 188.288 58.955 188.291 58.9517C188.292 58.9369 188.294 58.9134 188.294 58.88C188.294 58.8467 188.292 58.8232 188.291 58.8083C188.288 58.805 188.284 58.8012 188.28 58.797L188.267 58.7845C188.248 58.7833 188.225 58.7825 188.197 58.7825C188.163 58.7825 188.14 58.7843 188.125 58.786C188.122 58.7891 188.118 58.7927 188.114 58.797C188.109 58.8012 188.106 58.805 188.103 58.8084C188.101 58.8232 188.099 58.8467 188.099 58.88C188.099 58.9134 188.101 58.9369 188.103 58.9517C188.106 58.9551 188.109 58.9588 188.114 58.9631C188.118 58.9674 188.122 58.971 188.125 58.9741C188.14 58.9758 188.163 58.9776 188.197 58.9776C188.225 58.9776 188.248 58.9768 188.267 58.9756ZM208.897 58.9735C208.873 58.9758 208.842 58.9776 208.803 58.9776C208.77 58.9776 208.746 58.9758 208.732 58.9741C208.728 58.971 208.724 58.9674 208.72 58.9631C208.716 58.9588 208.712 58.9551 208.709 58.9517C208.708 58.9369 208.706 58.9134 208.706 58.88C208.706 58.8467 208.707 58.8232 208.709 58.8083C208.712 58.805 208.716 58.8012 208.72 58.797C208.724 58.7927 208.728 58.7891 208.732 58.786C208.746 58.7843 208.77 58.7825 208.803 58.7825C208.837 58.7825 208.86 58.7843 208.875 58.786C208.878 58.7891 208.882 58.7927 208.886 58.797C208.891 58.8012 208.894 58.805 208.897 58.8083C208.899 58.8232 208.901 58.8467 208.901 58.88C208.901 58.918 208.899 58.949 208.897 58.9735ZM208.257 69.4175L210.989 70.9005C210.986 70.9065 210.983 70.9124 210.979 70.9184C210.869 71.1291 210.757 71.3359 210.642 71.5386C210.181 72.3572 209.691 73.1106 209.17 73.7988C208.501 74.6829 207.783 75.4595 207.016 76.1287C204.628 78.2112 201.763 79.2524 198.422 79.2524C195.425 79.2524 192.811 78.3985 190.579 76.6906C189.555 75.9065 188.611 74.9422 187.748 73.798C187.336 73.2514 186.942 72.6638 186.567 72.035C186.35 71.6707 186.138 71.2925 185.933 70.9005L188.587 69.4175C188.6 69.442 188.613 69.4664 188.627 69.4908C188.695 69.6162 188.764 69.7396 188.835 69.861C189.855 71.6201 191.097 72.968 192.56 73.9048C194.226 74.9721 196.18 75.5058 198.422 75.5058C200.911 75.5058 203.054 74.8318 204.852 73.4837C206.163 72.5006 207.291 71.1589 208.234 69.4588C208.242 69.445 208.249 69.4313 208.257 69.4175ZM190.694 61.3778C190.07 62.0543 189.237 62.3925 188.197 62.3925C187.208 62.3925 186.375 62.0543 185.699 61.3778C185.023 60.7013 184.684 59.8687 184.684 58.88C184.684 57.8913 185.023 57.0588 185.699 56.3823C186.375 55.7058 187.208 55.3676 188.197 55.3676C189.237 55.3676 190.07 55.7058 190.694 56.3823C191.371 57.0588 191.709 57.8913 191.709 58.88C191.709 59.8687 191.371 60.7013 190.694 61.3778ZM211.301 61.4559C210.625 62.0803 209.792 62.3925 208.803 62.3925C207.815 62.3925 206.982 62.0543 206.306 61.3778C205.629 60.7013 205.291 59.8687 205.291 58.88C205.291 57.8913 205.629 57.0588 206.306 56.3823C206.982 55.7058 207.815 55.3676 208.803 55.3676C209.792 55.3676 210.625 55.7058 211.301 56.3823C211.977 57.0588 212.316 57.8913 212.316 58.88C212.316 59.9208 211.977 60.7794 211.301 61.4559Z" fill="#2D2D2D"/>
<path fill-rule="evenodd" clip-rule="evenodd" d="M186.608 92.6125L186.599 92.6085C182.994 91.0387 179.784 88.88 176.987 86.1415L176.975 86.1289L176.962 86.1162C174.154 83.3082 171.958 80.0563 170.384 76.3826C168.787 72.6579 168 68.6854 168 64.5C168 60.3185 168.786 56.3676 170.387 52.6864C171.955 49.0316 174.113 45.7908 176.858 42.9874L176.871 42.9745L176.884 42.9618C179.692 40.1538 182.944 37.958 186.617 36.3836C190.342 34.7873 194.315 34 198.5 34C202.685 34 206.658 34.7873 210.383 36.3836C214.052 37.9561 217.279 40.1507 220.038 42.9618C222.849 45.7208 225.044 48.9483 226.616 52.6174C228.213 56.3421 229 60.3147 229 64.5C229 68.6854 228.213 72.6579 226.616 76.3826C225.042 80.0563 222.846 83.3082 220.038 86.1162C217.276 88.8788 214.048 91.0457 210.383 92.6164C206.658 94.2127 202.685 95 198.5 95C194.315 95 190.342 94.2127 186.617 92.6164L186.608 92.6125ZM217.623 45.3765C215.178 42.8788 212.316 40.9274 209.037 39.5224C205.759 38.1174 202.247 37.4149 198.5 37.4149C194.753 37.4149 191.241 38.1174 187.963 39.5224C184.684 40.9274 181.796 42.8788 179.298 45.3765C176.853 47.8743 174.927 50.7623 173.522 54.0406C172.117 57.2669 171.415 60.7534 171.415 64.5C171.415 68.2466 172.117 71.7591 173.522 75.0374C174.927 78.3157 176.879 81.2038 179.377 83.7015C181.874 86.1473 184.736 88.0726 187.963 89.4776C191.241 90.8826 194.753 91.5851 198.5 91.5851C202.247 91.5851 205.759 90.8826 209.037 89.4776C212.316 88.0726 215.178 86.1473 217.623 83.7015C220.121 81.2038 222.073 78.3157 223.478 75.0374C224.883 71.7591 225.585 68.2466 225.585 64.5C225.585 60.7534 224.883 57.2409 223.478 53.9626C222.073 50.6843 220.121 47.8222 217.623 45.3765ZM188.267 58.9756L188.28 58.9631C188.284 58.9588 188.288 58.955 188.291 58.9517C188.292 58.9369 188.294 58.9134 188.294 58.88C188.294 58.8467 188.292 58.8232 188.291 58.8083C188.288 58.805 188.284 58.8012 188.28 58.797L188.267 58.7845C188.248 58.7833 188.225 58.7825 188.197 58.7825C188.163 58.7825 188.14 58.7843 188.125 58.786C188.122 58.7891 188.118 58.7927 188.114 58.797C188.109 58.8012 188.106 58.805 188.103 58.8084C188.101 58.8232 188.099 58.8467 188.099 58.88C188.099 58.9134 188.101 58.9369 188.103 58.9517C188.106 58.9551 188.109 58.9588 188.114 58.9631C188.118 58.9674 188.122 58.971 188.125 58.9741C188.14 58.9758 188.163 58.9776 188.197 58.9776C188.225 58.9776 188.248 58.9768 188.267 58.9756ZM208.897 58.9735C208.873 58.9758 208.842 58.9776 208.803 58.9776C208.77 58.9776 208.746 58.9758 208.732 58.9741C208.728 58.971 208.724 58.9674 208.72 58.9631C208.716 58.9588 208.712 58.9551 208.709 58.9517C208.708 58.9369 208.706 58.9134 208.706 58.88C208.706 58.8467 208.707 58.8232 208.709 58.8083C208.712 58.805 208.716 58.8012 208.72 58.797C208.724 58.7927 208.728 58.7891 208.732 58.786C208.746 58.7843 208.77 58.7825 208.803 58.7825C208.837 58.7825 208.86 58.7843 208.875 58.786C208.878 58.7891 208.882 58.7927 208.886 58.797C208.891 58.8012 208.894 58.805 208.897 58.8083C208.899 58.8232 208.901 58.8467 208.901 58.88C208.901 58.918 208.899 58.949 208.897 58.9735ZM208.257 69.4175L210.989 70.9005C210.986 70.9065 210.983 70.9124 210.979 70.9184C210.869 71.1291 210.757 71.3359 210.642 71.5386C210.181 72.3572 209.691 73.1106 209.17 73.7988C208.501 74.6829 207.783 75.4595 207.016 76.1287C204.628 78.2112 201.763 79.2524 198.422 79.2524C195.425 79.2524 192.811 78.3985 190.579 76.6906C189.555 75.9065 188.611 74.9422 187.748 73.798C187.336 73.2514 186.942 72.6638 186.567 72.035C186.35 71.6707 186.138 71.2925 185.933 70.9005L188.587 69.4175C188.6 69.442 188.613 69.4664 188.627 69.4908C188.695 69.6162 188.764 69.7396 188.835 69.861C189.855 71.6201 191.097 72.968 192.56 73.9048C194.226 74.9721 196.18 75.5058 198.422 75.5058C200.911 75.5058 203.054 74.8318 204.852 73.4837C206.163 72.5006 207.291 71.1589 208.234 69.4588C208.242 69.445 208.249 69.4313 208.257 69.4175ZM190.694 61.3778C190.07 62.0543 189.237 62.3925 188.197 62.3925C187.208 62.3925 186.375 62.0543 185.699 61.3778C185.023 60.7013 184.684 59.8687 184.684 58.88C184.684 57.8913 185.023 57.0588 185.699 56.3823C186.375 55.7058 187.208 55.3676 188.197 55.3676C189.237 55.3676 190.07 55.7058 190.694 56.3823C191.371 57.0588 191.709 57.8913 191.709 58.88C191.709 59.8687 191.371 60.7013 190.694 61.3778ZM211.301 61.4559C210.625 62.0803 209.792 62.3925 208.803 62.3925C207.815 62.3925 206.982 62.0543 206.306 61.3778C205.629 60.7013 205.291 59.8687 205.291 58.88C205.291 57.8913 205.629 57.0588 206.306 56.3823C206.982 55.7058 207.815 55.3676 208.803 55.3676C209.792 55.3676 210.625 55.7058 211.301 56.3823C211.977 57.0588 212.316 57.8913 212.316 58.88C212.316 59.9208 211.977 60.7794 211.301 61.4559Z" stroke="#2D2D2D" stroke-width="2.5" mask="url(#path-10-outside-2)"/>
<path d="M188.002 59.9928C188.393 59.9928 188.772 59.8746 189.067 59.6535C189.361 59.4323 189.602 59.079 189.602 58.6361C189.602 58.1932 189.361 57.8398 189.067 57.6186C188.772 57.3976 188.393 57.2793 188.002 57.2793C187.61 57.2793 187.231 57.3976 186.937 57.6186C186.642 57.8398 186.401 58.1932 186.401 58.6361C186.401 59.079 186.642 59.4323 186.937 59.6535C187.231 59.8746 187.61 59.9928 188.002 59.9928Z" fill="#2D2D2D" stroke="#2D2D2D" stroke-width="1.25"/>
<path d="M208.979 60.4807C209.37 60.4807 209.749 60.3625 210.044 60.1414C210.339 59.9202 210.58 59.5669 210.58 59.124C210.58 58.6811 210.339 58.3278 210.044 58.1065C209.749 57.8855 209.37 57.7672 208.979 57.7672C208.587 57.7672 208.209 57.8855 207.914 58.1065C207.619 58.3278 207.378 58.6811 207.378 59.124C207.378 59.5669 207.619 59.9202 207.914 60.1414C208.209 60.3625 208.587 60.4807 208.979 60.4807Z" fill="#2D2D2D" stroke="#2D2D2D" stroke-width="1.25"/>
</svg>
