<svg width="139" height="87" viewBox="0 0 139 87" fill="none" xmlns="http://www.w3.org/2000/svg">
<path d="M2.45029 75.6822L23.9808 34.0566L33.5499 50.3241L20.6316 75.6822H2.45029Z" fill="#5B7388" stroke="#5B7388" stroke-width="1.91382"/>
<path d="M29.2438 18.2675L38.8129 2L76.1324 75.2038H57.4727L29.2438 18.2675Z" fill="#FC0062" stroke="#FC0062" stroke-width="1.91382"/>
<path d="M58.9081 18.7459L68.4772 2.47839L105.797 75.6822H87.137L58.9081 18.7459Z" fill="#FC0062" stroke="#FC0062" stroke-width="1.91382"/>
<path d="M88.5724 18.7459L98.1415 2.47839L135.461 75.6822H116.801L88.5724 18.7459Z" fill="#FC0062" stroke="#FC0062" stroke-width="1.91382"/>
<path d="M0.696617 84.9884V79.9914H0.703315L3.08794 83.3741L5.50606 79.9914H5.51275V84.9884H4.86971V81.8603L3.08794 84.3789H3.07454L1.32626 81.9473V84.9884H0.696617ZM11.1914 80.1455H11.8411V84.9884H11.1914V80.1455ZM18.812 80.1455C19.1336 80.1455 19.4238 80.2035 19.6828 80.3196C19.9418 80.4313 20.1472 80.601 20.2991 80.8287C20.4509 81.052 20.5268 81.3244 20.5268 81.6459C20.5268 81.9228 20.4643 82.1907 20.3393 82.4497C20.2187 82.7087 20.0133 82.9052 19.723 83.0392L20.9421 84.9884H20.1852L19.0398 83.1999C18.9907 83.2044 18.9393 83.2066 18.8857 83.2066H18.169V84.9884H17.5192V80.1455H18.812ZM18.8723 82.577C19.1313 82.577 19.33 82.5301 19.4685 82.4363C19.6114 82.3381 19.7118 82.2197 19.7699 82.0813C19.828 81.9384 19.857 81.8022 19.857 81.6727C19.857 81.5432 19.8257 81.4092 19.7632 81.2708C19.7007 81.1324 19.6002 81.014 19.4618 80.9158C19.3278 80.8175 19.1469 80.7684 18.9192 80.7684H18.169V82.577H18.8723ZM25.7459 84.9884L27.8626 79.9445H27.9028L30.0195 84.9884H29.2693L28.7669 83.7157H26.9047L26.3889 84.9884H25.7459ZM27.1325 83.153H28.5458L27.8559 81.3914L27.1325 83.153ZM39.4118 85.1425L35.8549 81.5387L35.8683 84.9884H35.2119V79.9981H35.2454L38.7955 83.6554L38.7821 80.1455H39.4318V85.1425H39.4118ZM45.1113 84.9884V80.1455H46.4376C46.9154 80.1455 47.3218 80.2192 47.6567 80.3665C47.9917 80.5094 48.2618 80.7014 48.4672 80.9426C48.6771 81.1837 48.8289 81.4517 48.9227 81.7464C49.021 82.0366 49.0701 82.3291 49.0701 82.6239C49.0701 82.9856 49.0053 83.3138 48.8758 83.6085C48.7463 83.8988 48.5699 84.1466 48.3467 84.3521C48.1234 84.5575 47.8666 84.716 47.5764 84.8276C47.2906 84.9348 46.9891 84.9884 46.6721 84.9884H45.1113ZM45.7611 84.3588H46.5448C46.8976 84.3588 47.2124 84.2895 47.4893 84.1511C47.7706 84.0127 47.9917 83.8117 48.1524 83.5483C48.3132 83.2803 48.3936 82.9566 48.3936 82.577C48.3936 82.184 48.3087 81.8536 48.139 81.5856C47.9738 81.3177 47.7527 81.1145 47.4759 80.9761C47.2035 80.8376 46.9132 80.7684 46.6051 80.7684H45.7611V84.3588ZM53.7043 84.9884L55.821 79.9445H55.8612L57.9779 84.9884H57.2277L56.7253 83.7157H54.8631L54.3474 84.9884H53.7043ZM55.0909 83.153H56.5043L55.8143 81.3914L55.0909 83.153ZM69.0944 84.9884L71.2111 79.9445H71.2513L73.368 84.9884H72.6177L72.1154 83.7157H70.2532L69.7374 84.9884H69.0944ZM70.4809 83.153H71.8943L71.2044 81.3914L70.4809 83.153ZM79.813 80.1455C80.2952 80.1455 80.6748 80.2459 80.9517 80.4469C81.233 80.6434 81.3737 80.9493 81.3737 81.3646C81.3737 81.6236 81.3156 81.8469 81.1995 82.0344C81.0834 82.222 80.9227 82.3693 80.7172 82.4765C80.9852 82.5792 81.2018 82.7288 81.367 82.9253C81.5322 83.1218 81.6148 83.3562 81.6148 83.6286C81.6148 83.9502 81.5367 84.2114 81.3804 84.4123C81.2285 84.6133 81.0298 84.7607 80.7842 84.8544C80.5386 84.9437 80.2774 84.9884 80.0005 84.9884H78.5604V80.1455H79.813ZM79.9469 82.2622C80.2104 82.2622 80.4024 82.1885 80.523 82.0411C80.6436 81.8893 80.7038 81.7084 80.7038 81.4985C80.7038 81.244 80.6257 81.0587 80.4694 80.9426C80.3131 80.8265 80.1032 80.7684 79.8397 80.7684H79.2101V82.2622H79.9469ZM79.9737 84.3855C80.2417 84.3855 80.4694 84.3253 80.6569 84.2047C80.849 84.0797 80.945 83.8899 80.945 83.6353C80.945 83.4478 80.8936 83.3004 80.7909 83.1932C80.6882 83.0861 80.5587 83.0101 80.4024 82.9655C80.2506 82.9164 80.0921 82.8918 79.9268 82.8918H79.2101V84.3855H79.9737ZM86.6931 82.5703C86.6931 82.2354 86.7557 81.9183 86.8807 81.6191C87.0102 81.3199 87.1888 81.0565 87.4166 80.8287C87.6443 80.601 87.9055 80.4223 88.2003 80.2928C88.4995 80.1589 88.8188 80.0919 89.1581 80.0919C89.4975 80.0919 89.8168 80.1589 90.116 80.2928C90.4197 80.4223 90.6854 80.601 90.9131 80.8287C91.1409 81.0565 91.3195 81.3199 91.449 81.6191C91.5785 81.9183 91.6432 82.2354 91.6432 82.5703C91.6432 82.9141 91.5785 83.2357 91.449 83.5349C91.3195 83.8296 91.1409 84.0908 90.9131 84.3186C90.6854 84.5463 90.4197 84.7249 90.116 84.8544C89.8168 84.9795 89.4975 85.042 89.1581 85.042C88.8188 85.042 88.4995 84.9795 88.2003 84.8544C87.9055 84.7294 87.6443 84.5552 87.4166 84.332C87.1888 84.1087 87.0102 83.8474 86.8807 83.5483C86.7557 83.2446 86.6931 82.9186 86.6931 82.5703ZM87.363 82.577C87.363 82.8315 87.4099 83.0704 87.5036 83.2937C87.5974 83.5125 87.7269 83.7068 87.8921 83.8765C88.0574 84.0462 88.2494 84.1779 88.4682 84.2717C88.687 84.3655 88.9237 84.4123 89.1782 84.4123C89.5132 84.4123 89.8146 84.332 90.0825 84.1712C90.3549 84.006 90.5715 83.7849 90.7323 83.5081C90.893 83.2267 90.9734 82.9141 90.9734 82.5703C90.9734 82.3157 90.9265 82.0768 90.8327 81.8536C90.739 81.6258 90.6095 81.4271 90.4442 81.2574C90.279 81.0877 90.087 80.956 89.8682 80.8622C89.6494 80.764 89.4149 80.7148 89.1648 80.7148C88.8255 80.7148 88.5196 80.7997 88.2472 80.9694C87.9748 81.1391 87.7582 81.3646 87.5974 81.6459C87.4411 81.9272 87.363 82.2376 87.363 82.577ZM100.823 84.5731C100.729 84.649 100.593 84.7227 100.414 84.7942C100.236 84.8656 100.044 84.9259 99.8382 84.975C99.6328 85.0197 99.4385 85.042 99.2554 85.042C98.7419 85.042 98.2953 84.9393 97.9157 84.7339C97.5362 84.524 97.2414 84.2404 97.0316 83.8832C96.8261 83.5215 96.7234 83.1129 96.7234 82.6574C96.7234 82.251 96.7882 81.8893 96.9177 81.5722C97.0517 81.2552 97.2325 80.9872 97.4603 80.7684C97.6925 80.5451 97.9582 80.3777 98.2574 80.266C98.5566 80.1499 98.8736 80.0919 99.2085 80.0919C99.4899 80.0919 99.7511 80.1254 99.9922 80.1924C100.233 80.2593 100.446 80.3442 100.629 80.4469L100.414 81.0431C100.32 80.9895 100.207 80.9403 100.073 80.8957C99.9431 80.851 99.8092 80.8153 99.6707 80.7885C99.5323 80.7617 99.405 80.7483 99.2889 80.7483C98.9093 80.7483 98.5767 80.8242 98.2909 80.9761C98.0051 81.1279 97.784 81.3422 97.6277 81.6191C97.4714 81.896 97.3933 82.2242 97.3933 82.6038C97.3933 82.9566 97.4714 83.2692 97.6277 83.5416C97.784 83.8095 98.0028 84.0194 98.2842 84.1712C98.5655 84.3186 98.8937 84.3922 99.2688 84.3922C99.4296 84.3922 99.5903 84.3766 99.7511 84.3454C99.9119 84.3141 100.048 84.265 100.16 84.198V83.2468H99.2018V82.6172H100.823V84.5731ZM105.866 84.9884L107.983 79.9445H108.023L110.14 84.9884H109.39L108.887 83.7157H107.025L106.509 84.9884H105.866ZM107.253 83.153H108.666L107.976 81.3914L107.253 83.153ZM115.332 84.9884V80.1455H116.659C117.136 80.1455 117.543 80.2192 117.878 80.3665C118.213 80.5094 118.483 80.7014 118.688 80.9426C118.898 81.1837 119.05 81.4517 119.144 81.7464C119.242 82.0366 119.291 82.3291 119.291 82.6239C119.291 82.9856 119.226 83.3138 119.097 83.6085C118.967 83.8988 118.791 84.1466 118.568 84.3521C118.344 84.5575 118.088 84.716 117.797 84.8276C117.512 84.9348 117.21 84.9884 116.893 84.9884H115.332ZM115.982 84.3588H116.766C117.119 84.3588 117.433 84.2895 117.71 84.1511C117.992 84.0127 118.213 83.8117 118.373 83.5483C118.534 83.2803 118.615 82.9566 118.615 82.577C118.615 82.184 118.53 81.8536 118.36 81.5856C118.195 81.3177 117.974 81.1145 117.697 80.9761C117.425 80.8376 117.134 80.7684 116.826 80.7684H115.982V84.3588ZM124.368 82.5703C124.368 82.2354 124.43 81.9183 124.555 81.6191C124.685 81.3199 124.864 81.0565 125.091 80.8287C125.319 80.601 125.58 80.4223 125.875 80.2928C126.174 80.1589 126.493 80.0919 126.833 80.0919C127.172 80.0919 127.492 80.1589 127.791 80.2928C128.094 80.4223 128.36 80.601 128.588 80.8287C128.816 81.0565 128.994 81.3199 129.124 81.6191C129.253 81.9183 129.318 82.2354 129.318 82.5703C129.318 82.9141 129.253 83.2357 129.124 83.5349C128.994 83.8296 128.816 84.0908 128.588 84.3186C128.36 84.5463 128.094 84.7249 127.791 84.8544C127.492 84.9795 127.172 85.042 126.833 85.042C126.493 85.042 126.174 84.9795 125.875 84.8544C125.58 84.7294 125.319 84.5552 125.091 84.332C124.864 84.1087 124.685 83.8474 124.555 83.5483C124.43 83.2446 124.368 82.9186 124.368 82.5703ZM125.038 82.577C125.038 82.8315 125.085 83.0704 125.178 83.2937C125.272 83.5125 125.402 83.7068 125.567 83.8765C125.732 84.0462 125.924 84.1779 126.143 84.2717C126.362 84.3655 126.598 84.4123 126.853 84.4123C127.188 84.4123 127.489 84.332 127.757 84.1712C128.03 84.006 128.246 83.7849 128.407 83.5081C128.568 83.2267 128.648 82.9141 128.648 82.5703C128.648 82.3157 128.601 82.0768 128.507 81.8536C128.414 81.6258 128.284 81.4271 128.119 81.2574C127.954 81.0877 127.762 80.956 127.543 80.8622C127.324 80.764 127.09 80.7148 126.84 80.7148C126.5 80.7148 126.194 80.7997 125.922 80.9694C125.65 81.1391 125.433 81.3646 125.272 81.6459C125.116 81.9272 125.038 82.2376 125.038 82.577ZM137.205 81.0096C137.04 80.9247 136.859 80.851 136.662 80.7885C136.466 80.726 136.276 80.6947 136.093 80.6947C135.829 80.6947 135.62 80.755 135.463 80.8756C135.311 80.9962 135.235 81.1592 135.235 81.3646C135.235 81.5119 135.285 81.637 135.383 81.7397C135.486 81.8424 135.615 81.9339 135.771 82.0143C135.932 82.0902 136.102 82.1617 136.28 82.2287C136.481 82.3046 136.676 82.3961 136.863 82.5033C137.051 82.6105 137.205 82.7556 137.325 82.9387C137.45 83.1173 137.513 83.3585 137.513 83.6621C137.513 83.9211 137.448 84.1556 137.319 84.3655C137.189 84.5709 137.006 84.7361 136.769 84.8611C136.533 84.9817 136.251 85.042 135.925 85.042C135.604 85.042 135.305 84.9906 135.028 84.8879C134.755 84.7852 134.523 84.6669 134.331 84.5329L134.619 84.0171C134.776 84.1377 134.968 84.2426 135.195 84.332C135.427 84.4213 135.649 84.4659 135.858 84.4659C136.015 84.4659 136.167 84.4391 136.314 84.3855C136.466 84.332 136.591 84.2471 136.689 84.131C136.787 84.0104 136.836 83.8564 136.836 83.6688C136.836 83.5081 136.792 83.3719 136.702 83.2602C136.613 83.1486 136.497 83.0548 136.354 82.9789C136.216 82.8985 136.064 82.8271 135.899 82.7645C135.747 82.711 135.593 82.6484 135.436 82.577C135.28 82.5055 135.135 82.4207 135.001 82.3224C134.872 82.2197 134.767 82.0947 134.686 81.9473C134.606 81.8 134.566 81.6213 134.566 81.4115C134.566 81.1569 134.626 80.9359 134.746 80.7483C134.872 80.5563 135.041 80.4067 135.256 80.2995C135.47 80.1879 135.718 80.1276 135.999 80.1187C136.307 80.1187 136.58 80.1566 136.816 80.2326C137.057 80.3085 137.27 80.4 137.453 80.5072L137.205 81.0096Z" fill="#5B7388"/>
</svg>
