<svg width="248" height="59" viewBox="0 0 248 59" fill="none" xmlns="http://www.w3.org/2000/svg">
<path d="M72.0955 28.4535V4.74237H80.2741C81.58 4.74237 82.8171 4.87983 83.9167 5.15474C85.0851 5.42965 86.0473 5.84202 86.872 6.46057C87.6968 7.07912 88.384 7.83513 88.8651 8.79732C89.3462 9.75951 89.6211 10.9966 89.6211 12.4399C89.6211 13.8145 89.3462 15.0516 88.8651 16.0137C88.384 17.0447 87.6968 17.8694 86.872 18.5567C86.0473 19.244 85.0164 19.7251 83.9167 20C82.8171 20.3436 81.6487 20.4811 80.3429 20.4811H77.3876V28.5222H72.0955V28.4535ZM77.4563 16.1512H80.068C82.9545 16.1512 84.3978 14.9141 84.3978 12.3712C84.3978 11.1341 83.9854 10.2406 83.2294 9.75951C82.4734 9.27841 81.3051 9.0035 79.8618 9.0035H77.3876V16.1512H77.4563Z" fill="#404041"/>
<path d="M92.2327 28.4534V10.378H96.5625L96.9062 13.5395H97.0436C97.7309 12.3024 98.4869 11.4089 99.3804 10.7904C100.274 10.2406 101.236 9.89691 102.129 9.89691C102.611 9.89691 103.023 9.89691 103.367 9.96564C103.71 10.0344 103.985 10.1031 104.26 10.2406L103.367 14.8453C103.023 14.7766 102.679 14.7079 102.404 14.6391C102.129 14.5704 101.786 14.5704 101.373 14.5704C100.686 14.5704 99.9989 14.8453 99.2429 15.3264C98.4869 15.8075 97.8684 16.701 97.3873 17.9381V28.3847H92.2327V28.4534Z" fill="#404041"/>
<path d="M114.363 28.8658C113.057 28.8658 111.889 28.6596 110.789 28.2473C109.69 27.8349 108.727 27.2163 107.903 26.3916C107.078 25.5669 106.459 24.6047 105.978 23.4363C105.497 22.2679 105.291 20.9621 105.291 19.4501C105.291 18.0068 105.566 16.701 106.047 15.5326C106.528 14.3642 107.147 13.3333 107.971 12.5773C108.727 11.7526 109.69 11.134 110.652 10.7216C111.683 10.3093 112.714 10.0344 113.813 10.0344C115.119 10.0344 116.219 10.2405 117.181 10.7216C118.143 11.134 118.968 11.7526 119.586 12.5086C120.205 13.2646 120.686 14.2268 121.03 15.2577C121.373 16.2886 121.511 17.457 121.511 18.6941C121.511 19.1752 121.511 19.6563 121.442 20.0686C121.373 20.481 121.373 20.8246 121.305 21.0308H110.514C110.72 22.3367 111.27 23.2988 112.164 23.9174C112.988 24.5359 114.019 24.8109 115.257 24.8109C116.562 24.8109 117.868 24.3985 119.174 23.6425L120.961 26.8727C120.067 27.4912 119.037 27.9723 117.868 28.3847C116.562 28.6596 115.394 28.8658 114.363 28.8658ZM110.308 17.457H116.837C116.837 16.4261 116.631 15.6013 116.15 14.9828C115.669 14.3642 114.913 14.0206 113.813 14.0206C112.988 14.0206 112.232 14.2955 111.545 14.8453C110.927 15.3951 110.514 16.2886 110.308 17.457Z" fill="#404041"/>
<path d="M131.064 28.8657C129.964 28.8657 128.934 28.6596 128.04 28.1785C127.147 27.7661 126.322 27.1475 125.703 26.3228C125.085 25.4981 124.535 24.5359 124.191 23.3675C123.848 22.1991 123.641 20.8933 123.641 19.3813C123.641 17.8693 123.848 16.5634 124.26 15.3951C124.672 14.2267 125.222 13.2645 125.91 12.4398C126.597 11.615 127.422 10.9965 128.315 10.5841C129.208 10.1718 130.171 9.89684 131.064 9.89684C132.095 9.89684 132.92 10.0343 133.607 10.3779C134.294 10.7216 134.913 11.2027 135.531 11.7525L135.325 9.00338V2.95532H140.686V28.4534H136.356L136.013 26.6664H135.875C135.256 27.285 134.5 27.8348 133.676 28.2472C132.851 28.6596 131.958 28.8657 131.064 28.8657ZM132.439 24.4672C132.988 24.4672 133.538 24.3297 134.019 24.1235C134.5 23.8486 134.913 23.4362 135.394 22.8177V15.4638C134.913 15.0514 134.432 14.7078 133.882 14.5703C133.401 14.4329 132.851 14.2954 132.37 14.2954C131.545 14.2954 130.789 14.7078 130.102 15.5325C129.415 16.3573 129.14 17.5944 129.14 19.3126C129.14 21.0995 129.415 22.4053 129.964 23.2301C130.652 24.0548 131.408 24.4672 132.439 24.4672Z" fill="#404041"/>
<path d="M146.94 7.7663C146.047 7.7663 145.291 7.49139 144.741 7.01029C144.191 6.46047 143.847 5.84192 143.847 5.01718C143.847 4.19245 144.122 3.50517 144.741 3.02407C145.291 2.54298 146.047 2.26807 146.94 2.26807C147.834 2.26807 148.59 2.54298 149.208 3.02407C149.758 3.50517 150.033 4.19245 150.033 5.01718C150.033 5.84192 149.758 6.5292 149.208 7.01029C148.59 7.49139 147.834 7.7663 146.94 7.7663ZM144.26 28.4534V10.378H149.621V28.3847H144.26V28.4534Z" fill="#404041"/>
<path d="M161.304 28.8658C160.067 28.8658 158.899 28.6596 157.799 28.2473C156.699 27.8349 155.806 27.2163 154.981 26.3916C154.156 25.5669 153.538 24.6047 153.057 23.4363C152.576 22.2679 152.37 20.8934 152.37 19.4501C152.37 18.0068 152.644 16.6322 153.126 15.4639C153.607 14.2955 154.294 13.3333 155.187 12.5086C156.081 11.6838 157.043 11.0653 158.211 10.6529C159.38 10.2405 160.548 10.0344 161.785 10.0344C162.885 10.0344 163.916 10.2405 164.741 10.5842C165.634 10.9278 166.39 11.4089 167.077 11.9587L164.534 15.3951C163.71 14.7079 162.885 14.3642 162.129 14.3642C160.823 14.3642 159.792 14.8453 159.036 15.7388C158.28 16.6322 157.937 17.9381 157.937 19.4501C157.937 20.9621 158.349 22.2679 159.105 23.1614C159.861 24.0549 160.823 24.536 161.991 24.536C162.541 24.536 163.16 24.3985 163.71 24.1236C164.259 23.8487 164.741 23.5738 165.222 23.2301L167.352 26.7352C166.459 27.4913 165.497 28.0411 164.466 28.3847C163.435 28.7284 162.266 28.8658 161.304 28.8658Z" fill="#404041"/>
<path d="M177.936 28.8657C176.837 28.8657 175.875 28.7283 175.05 28.3846C174.294 28.041 173.607 27.5599 173.125 26.9413C172.644 26.3228 172.232 25.6355 172.026 24.742C171.82 23.8486 171.682 22.9551 171.682 21.8555V14.5703H169.208V10.5841L171.957 10.3779L172.576 5.56696H177.043V10.3779H181.373V14.5703H177.043V21.7867C177.043 22.8177 177.249 23.5049 177.661 23.986C178.074 24.4671 178.624 24.6733 179.38 24.6733C179.655 24.6733 179.998 24.6046 180.273 24.5359C180.548 24.4671 180.823 24.3984 181.098 24.2609L181.923 28.1784C181.442 28.3159 180.892 28.4533 180.204 28.5908C179.586 28.797 178.83 28.8657 177.936 28.8657Z" fill="#404041"/>
<path d="M189.07 28.8658C188.246 28.8658 187.49 28.7284 186.802 28.4535C186.115 28.1785 185.565 27.7662 185.084 27.2851C184.603 26.804 184.26 26.1854 183.985 25.5669C183.71 24.8796 183.572 24.1923 183.572 23.4363C183.572 21.5119 184.397 20.0686 185.978 18.969C187.558 17.8694 190.17 17.1821 193.744 16.8384C193.675 16.0137 193.469 15.3951 193.057 14.9141C192.644 14.433 191.888 14.2268 190.926 14.2268C190.17 14.2268 189.414 14.3642 188.589 14.6391C187.833 14.914 187.009 15.3264 186.115 15.8075L184.191 12.3024C185.359 11.6151 186.596 10.9966 187.833 10.5842C189.139 10.1718 190.445 9.89691 191.888 9.89691C194.225 9.89691 196.012 10.5842 197.18 11.89C198.417 13.1959 199.036 15.2577 199.036 18.0755V28.3847H194.706L194.363 26.5291H194.225C193.469 27.2163 192.644 27.7662 191.82 28.1785C191.064 28.6596 190.101 28.8658 189.07 28.8658ZM190.926 24.7421C191.545 24.7421 192.026 24.6047 192.507 24.3298C192.919 24.0549 193.4 23.7112 193.881 23.2301V20.0686C191.957 20.3436 190.651 20.7559 189.964 21.237C189.277 21.7181 188.864 22.3367 188.864 23.0239C188.864 23.5738 189.07 24.0549 189.414 24.3298C189.758 24.6047 190.308 24.7421 190.926 24.7421Z" fill="#404041"/>
<path d="M211.819 28.8657C210.995 28.8657 210.239 28.6596 209.414 28.2472C208.589 27.8348 207.833 27.285 207.146 26.4603H207.008L206.596 28.3846H202.404V2.95532H207.764V9.20956L207.627 11.9587C208.314 11.3401 209.07 10.859 209.895 10.5154C210.72 10.1718 211.544 9.96557 212.369 9.96557C213.469 9.96557 214.431 10.1718 215.325 10.6528C216.218 11.0652 216.974 11.6838 217.593 12.5085C218.211 13.2645 218.692 14.2267 219.036 15.3951C219.379 16.4947 219.517 17.8005 219.517 19.1751C219.517 20.7558 219.311 22.1304 218.898 23.2988C218.486 24.5359 217.936 25.5668 217.18 26.3915C216.493 27.2163 215.668 27.8348 214.775 28.3159C213.744 28.6596 212.782 28.8657 211.819 28.8657ZM210.582 24.4672C211.476 24.4672 212.3 24.0548 212.919 23.2301C213.606 22.4053 213.881 21.0308 213.881 19.1751C213.881 15.9449 212.85 14.2954 210.788 14.2954C209.689 14.2954 208.658 14.8453 207.696 15.9449V23.3675C208.177 23.7799 208.658 24.1235 209.139 24.261C209.62 24.3984 210.101 24.4672 210.582 24.4672Z" fill="#404041"/>
<path d="M227.214 28.8657C226.321 28.8657 225.496 28.7283 224.878 28.4534C224.259 28.1785 223.778 27.7661 223.366 27.2163C223.022 26.6664 222.747 26.0479 222.541 25.2919C222.403 24.5359 222.266 23.7112 222.266 22.8177V2.95532H227.627V23.0926C227.627 23.6424 227.764 24.0548 227.902 24.261C228.108 24.4672 228.314 24.6046 228.52 24.6046C228.658 24.6046 228.726 24.6046 228.795 24.6046C228.864 24.6046 229.001 24.6046 229.139 24.5359L229.826 28.5221C229.551 28.6596 229.139 28.7283 228.726 28.797C228.383 28.797 227.833 28.8657 227.214 28.8657Z" fill="#404041"/>
<path d="M240.41 28.8658C239.104 28.8658 237.936 28.6596 236.836 28.2473C235.737 27.8349 234.775 27.2163 233.95 26.3916C233.125 25.5669 232.507 24.6047 232.025 23.4363C231.544 22.2679 231.338 20.9621 231.338 19.4501C231.338 18.0068 231.613 16.701 232.094 15.5326C232.575 14.3642 233.194 13.3333 234.019 12.5773C234.775 11.7526 235.737 11.134 236.699 10.7216C237.73 10.3093 238.761 10.0344 239.86 10.0344C241.166 10.0344 242.266 10.2405 243.228 10.7216C244.19 11.134 245.015 11.7526 245.634 12.5086C246.252 13.2646 246.733 14.2268 247.077 15.2577C247.421 16.2886 247.558 17.457 247.558 18.6941C247.558 19.1752 247.558 19.6563 247.489 20.0686C247.421 20.481 247.421 20.8246 247.352 21.0308H236.562C236.768 22.3367 237.318 23.2988 238.211 23.9174C239.036 24.5359 240.067 24.8109 241.304 24.8109C242.61 24.8109 243.915 24.3985 245.221 23.6425L247.008 26.8727C246.115 27.4912 245.084 27.9723 243.915 28.3847C242.61 28.6596 241.51 28.8658 240.41 28.8658ZM236.424 17.457H242.953C242.953 16.4261 242.747 15.6013 242.266 14.9828C241.785 14.3642 241.029 14.0206 239.929 14.0206C239.104 14.0206 238.348 14.2955 237.661 14.8453C237.043 15.3951 236.63 16.2886 236.424 17.457Z" fill="#404041"/>
<path d="M72.1643 34.2265H78.6248C82.8172 34.2265 85.8412 35.7385 85.8412 39.9996C85.8412 43.2299 84.0543 45.1542 81.1677 45.8415L86.391 54.8449H83.4357L78.4873 46.1852H74.776V54.8449H72.1643V34.2265ZM78.2124 43.9859C81.4426 43.9859 83.2295 42.68 83.2295 39.9996C83.2295 37.3193 81.4426 36.3571 78.2124 36.3571H74.776V43.9859H78.2124Z" fill="#404041"/>
<path d="M88.0405 47.216C88.0405 42.1989 91.4082 39.1749 94.8446 39.1749C98.7621 39.1749 100.961 41.9927 100.961 46.3226C100.961 46.8724 100.961 47.4222 100.893 47.7659H90.5835C90.7896 50.9961 92.714 53.0579 95.6693 53.0579C97.1126 53.0579 98.3497 52.5768 99.4494 51.8895L100.343 53.6077C99.037 54.4325 97.3875 55.1885 95.3257 55.1885C91.2707 55.1885 88.0405 52.1644 88.0405 47.216ZM98.6934 45.9102C98.6934 42.8174 97.3188 41.168 94.9133 41.168C92.7828 41.168 90.8584 42.8862 90.5147 45.9102H98.6934Z" fill="#404041"/>
<path d="M101.717 39.5186H104.398L107.284 48.1783C107.697 49.6903 108.246 51.2023 108.728 52.6456H108.865C109.277 51.2023 109.827 49.6903 110.24 48.1783L113.126 39.5186H115.669L110.308 54.7761H107.216L101.717 39.5186Z" fill="#404041"/>
<path d="M116.356 47.216C116.356 42.1989 119.724 39.1749 123.16 39.1749C127.078 39.1749 129.277 41.9927 129.277 46.3226C129.277 46.8724 129.277 47.4222 129.208 47.7659H118.899C119.105 50.9961 121.03 53.0579 123.985 53.0579C125.428 53.0579 126.665 52.5768 127.765 51.8895L128.658 53.6077C127.353 54.4325 125.703 55.1885 123.641 55.1885C119.586 55.1885 116.356 52.1644 116.356 47.216ZM127.009 45.9102C127.009 42.8174 125.634 41.168 123.229 41.168C121.098 41.168 119.174 42.8862 118.83 45.9102H127.009Z" fill="#404041"/>
<path d="M131.958 39.5185H134.088L134.294 41.7178H134.363C135.806 40.2745 137.387 39.1749 139.449 39.1749C142.679 39.1749 144.122 41.2367 144.122 45.1542V54.8448H141.579V45.4978C141.579 42.6113 140.686 41.4429 138.693 41.4429C137.112 41.4429 136.081 42.2676 134.501 43.7796V54.8448H131.958V39.5185Z" fill="#404041"/>
<path d="M147.147 49.2092V39.5186H149.758V48.8655C149.758 51.7521 150.583 52.9205 152.645 52.9205C154.226 52.9205 155.325 52.1645 156.768 50.3776V39.5186H159.311V54.7761H157.181L156.975 52.3707H156.906C155.463 54.0201 154.019 55.1198 151.889 55.1198C148.59 55.1885 147.147 53.058 147.147 49.2092Z" fill="#404041"/>
<path d="M161.648 47.216C161.648 42.1989 165.016 39.1749 168.452 39.1749C172.369 39.1749 174.569 41.9927 174.569 46.3226C174.569 46.8724 174.569 47.4222 174.5 47.7659H164.191C164.397 50.9961 166.321 53.0579 169.277 53.0579C170.72 53.0579 171.957 52.5768 173.057 51.8895L173.95 53.6077C172.644 54.4325 170.995 55.1885 168.933 55.1885C164.878 55.1885 161.648 52.1644 161.648 47.216ZM172.301 45.9102C172.301 42.8174 170.926 41.168 168.521 41.168C166.39 41.168 164.466 42.8862 164.122 45.9102H172.301Z" fill="#404041"/>
<path d="M5.49826 36.632C8.53485 36.632 10.9965 34.1704 10.9965 31.1338C10.9965 28.0972 8.53485 25.6356 5.49826 25.6356C2.46167 25.6356 3.05176e-05 28.0972 3.05176e-05 31.1338C3.05176e-05 34.1704 2.46167 36.632 5.49826 36.632Z" fill="#6C8BC6"/>
<path d="M11.6149 18.9002L4.74216 0L44.8793 5.15459L54.4324 25.2231L11.6149 18.9002Z" fill="#6C8BC6"/>
<path d="M14.8453 38.4188L24.4672 58.5561L54.3639 25.1544L44.8794 5.15454L14.8453 38.4188Z" fill="#2553A2"/>
</svg>
