<svg width="303" height="57" viewBox="0 0 303 57" fill="none" xmlns="http://www.w3.org/2000/svg">
<path d="M6.08163 21.0685C5.25261 21.0685 4.51427 20.9713 3.8666 20.777C3.21893 20.5827 2.67488 20.2265 2.23447 19.7084C1.79405 19.1902 1.45726 18.4519 1.2241 17.4933C0.990937 16.5218 0.874356 15.2654 0.874356 13.7239C0.874356 12.2343 0.990937 11.0166 1.2241 10.071C1.47021 9.12543 1.81996 8.38709 2.27333 7.85599C2.7267 7.3249 3.27722 6.95573 3.92489 6.74848C4.57256 6.54122 5.30443 6.4376 6.12049 6.4376C7.07905 6.4376 7.94692 6.51532 8.72413 6.67076C9.51429 6.81324 10.1425 6.96221 10.6089 7.11765V9.35212C10.2591 9.27439 9.72802 9.20315 9.01558 9.13838C8.3161 9.06066 7.55185 9.0218 6.72283 9.0218C6.17878 9.0218 5.71246 9.08657 5.32386 9.2161C4.94821 9.33268 4.6438 9.55937 4.41064 9.89616C4.19043 10.22 4.02204 10.6928 3.90546 11.3146C3.80183 11.9363 3.75002 12.7459 3.75002 13.7433C3.75002 15.0387 3.83421 16.0296 4.00261 16.7161C4.171 17.3897 4.46893 17.856 4.89639 18.1151C5.32386 18.3612 5.93267 18.4843 6.72283 18.4843C7.69433 18.4843 8.49097 18.4648 9.11273 18.426C9.7345 18.3871 10.2332 18.3418 10.6089 18.29V20.505C10.0778 20.6864 9.43657 20.8288 8.68527 20.9325C7.94692 21.0231 7.07905 21.0685 6.08163 21.0685ZM16.8836 21.0491C15.7307 21.0491 14.811 20.9001 14.1245 20.6022C13.438 20.2913 12.9393 19.7537 12.6284 18.9895C12.3304 18.2123 12.1815 17.1306 12.1815 15.7446C12.1815 14.3327 12.324 13.2381 12.6089 12.4609C12.8939 11.6837 13.3732 11.1397 14.0468 10.8288C14.7203 10.5179 15.6336 10.3625 16.7864 10.3625C17.8097 10.3625 18.6323 10.4661 19.254 10.6734C19.8888 10.8806 20.3421 11.2433 20.6142 11.7615C20.8991 12.2796 21.0416 13.0115 21.0416 13.9571C21.0416 15.0192 20.7372 15.7511 20.1284 16.1527C19.5196 16.5542 18.697 16.755 17.6608 16.755H15.0377C15.0507 17.2861 15.1284 17.7071 15.2709 18.018C15.4134 18.3288 15.6659 18.5555 16.0286 18.698C16.4043 18.8405 16.9419 18.9117 17.6413 18.9117H20.6919V20.6022C20.1867 20.7058 19.6297 20.8094 19.0209 20.913C18.425 21.0037 17.7126 21.0491 16.8836 21.0491ZM14.9988 15.0451H17.3693C17.7579 15.0451 18.0429 14.9674 18.2242 14.812C18.4056 14.6436 18.4963 14.3651 18.4963 13.9765C18.4963 13.4065 18.3603 13.0115 18.0882 12.7912C17.8292 12.5581 17.3952 12.4415 16.7864 12.4415C16.1258 12.4415 15.6595 12.6229 15.3875 12.9855C15.1284 13.3353 14.9988 14.0218 14.9988 15.0451ZM22.9285 20.9519V10.5179H25.2989L25.8041 11.5866C26.1927 11.2757 26.685 10.9907 27.2808 10.7317C27.8767 10.4726 28.479 10.3431 29.0878 10.3431C29.9427 10.3431 30.6034 10.5114 31.0697 10.8482C31.536 11.185 31.8599 11.6384 32.0412 12.2083C32.2355 12.7653 32.3327 13.3871 32.3327 14.0736V20.9519H29.457V14.4428C29.457 13.9376 29.321 13.562 29.049 13.3159C28.7769 13.0568 28.4142 12.9273 27.9609 12.9273C27.5464 12.9273 27.1578 12.9985 26.7951 13.141C26.4453 13.2835 26.115 13.4713 25.8041 13.7045V20.9519H22.9285ZM38.4478 20.9519C37.2432 20.9519 36.3753 20.6799 35.8442 20.1358C35.3261 19.5918 35.0864 18.6268 35.1253 17.2407L35.2224 12.8301H33.5903V10.9842L35.3196 10.5179L35.7082 7.6034H37.9815V10.5179H40.4297V12.8301H37.9815V17.2213C37.9815 17.7913 38.0851 18.1734 38.2924 18.3677C38.4996 18.549 38.7393 18.6591 39.0113 18.698L40.3326 18.8146V20.9519H38.4478ZM42.036 20.9519V10.5179H44.2511L44.9117 12.1112C45.2873 11.6319 45.7083 11.2239 46.1746 10.8871C46.6539 10.5503 47.2174 10.3819 47.8651 10.3819C48.0076 10.3819 48.15 10.3884 48.2925 10.4013C48.448 10.4143 48.5905 10.4402 48.72 10.4791V13.4324C48.5127 13.4065 48.299 13.3871 48.0788 13.3742C47.8715 13.3482 47.6772 13.3353 47.4959 13.3353C46.9259 13.3353 46.4402 13.4324 46.0386 13.6267C45.6371 13.8081 45.2614 14.0866 44.9117 14.4622V20.9519H42.036ZM54.721 21.0491C53.5682 21.0491 52.642 20.8871 51.9425 20.5633C51.243 20.2265 50.7314 19.6695 50.4075 18.8923C50.0966 18.1151 49.9412 17.0529 49.9412 15.7058C49.9412 14.2809 50.1031 13.1863 50.427 12.4221C50.7508 11.6449 51.2625 11.1073 51.9619 10.8094C52.6614 10.5114 53.5811 10.3625 54.721 10.3625C55.8739 10.3625 56.8 10.5179 57.4995 10.8288C58.212 11.1397 58.7236 11.6837 59.0345 12.4609C59.3583 13.2381 59.5203 14.3198 59.5203 15.7058C59.5203 17.0918 59.3648 18.1734 59.0539 18.9506C58.7431 19.7278 58.2379 20.2718 57.5384 20.5827C56.8389 20.8936 55.8998 21.0491 54.721 21.0491ZM54.721 18.7563C55.1744 18.7563 55.5436 18.6915 55.8285 18.562C56.1135 18.4325 56.3208 18.154 56.4503 17.7265C56.5798 17.2861 56.6446 16.6125 56.6446 15.7058C56.6446 14.7861 56.5798 14.1125 56.4503 13.685C56.3208 13.2576 56.1135 12.9791 55.8285 12.8495C55.5436 12.72 55.1744 12.6552 54.721 12.6552C54.2676 12.6552 53.8985 12.72 53.6135 12.8495C53.3415 12.9791 53.1407 13.2576 53.0112 13.685C52.8816 14.1125 52.8169 14.7861 52.8169 15.7058C52.8169 16.6125 52.8816 17.2861 53.0112 17.7265C53.1407 18.154 53.3415 18.4325 53.6135 18.562C53.8985 18.6915 54.2676 18.7563 54.721 18.7563ZM69.8572 21.0685C68.6267 21.0685 67.694 20.6734 67.0593 19.8832C66.4375 19.0801 66.1267 17.733 66.1267 15.8418C66.1267 14.5594 66.2432 13.5166 66.4764 12.7135C66.7225 11.8975 67.1306 11.3016 67.7005 10.926C68.2705 10.5503 69.0541 10.3625 70.0515 10.3625C70.5179 10.3625 70.9842 10.4143 71.4505 10.5179C71.9298 10.6086 72.3508 10.7187 72.7135 10.8482V6.12671H75.6086V20.9519H73.1798L72.7135 19.961C72.3767 20.2589 71.9427 20.518 71.4117 20.7382C70.8935 20.9584 70.3754 21.0685 69.8572 21.0685ZM70.8676 18.7563C71.2562 18.7563 71.606 18.6915 71.9168 18.562C72.2407 18.4325 72.5062 18.3029 72.7135 18.1734V12.9273C72.4674 12.8236 72.1953 12.733 71.8974 12.6552C71.6124 12.5646 71.308 12.5192 70.9842 12.5192C70.5049 12.5192 70.1163 12.6034 69.8184 12.7718C69.5334 12.9402 69.3262 13.2576 69.1966 13.7239C69.0671 14.1773 69.0023 14.8379 69.0023 15.7058C69.0023 16.5218 69.0606 17.1501 69.1772 17.5905C69.3067 18.0309 69.5075 18.3353 69.7795 18.5037C70.0515 18.6721 70.4142 18.7563 70.8676 18.7563ZM82.1567 21.0491C81.0038 21.0491 80.0841 20.9001 79.3976 20.6022C78.7111 20.2913 78.2124 19.7537 77.9015 18.9895C77.6035 18.2123 77.4546 17.1306 77.4546 15.7446C77.4546 14.3327 77.5971 13.2381 77.882 12.4609C78.167 11.6837 78.6463 11.1397 79.3199 10.8288C79.9934 10.5179 80.9067 10.3625 82.0595 10.3625C83.0828 10.3625 83.9054 10.4661 84.5271 10.6734C85.1619 10.8806 85.6152 11.2433 85.8873 11.7615C86.1722 12.2796 86.3147 13.0115 86.3147 13.9571C86.3147 15.0192 86.0103 15.7511 85.4015 16.1527C84.7927 16.5542 83.9702 16.755 82.9339 16.755H80.3108C80.3238 17.2861 80.4015 17.7071 80.544 18.018C80.6865 18.3288 80.939 18.5555 81.3017 18.698C81.6774 18.8405 82.215 18.9117 82.9144 18.9117H85.965V20.6022C85.4598 20.7058 84.9028 20.8094 84.294 20.913C83.6981 21.0037 82.9857 21.0491 82.1567 21.0491ZM80.2719 15.0451H82.6424C83.031 15.0451 83.316 14.9674 83.4974 14.812C83.6787 14.6436 83.7694 14.3651 83.7694 13.9765C83.7694 13.4065 83.6334 13.0115 83.3613 12.7912C83.1023 12.5581 82.6683 12.4415 82.0595 12.4415C81.3989 12.4415 80.9326 12.6229 80.6606 12.9855C80.4015 13.3353 80.2719 14.0218 80.2719 15.0451Z" fill="black"/>
<path d="M97.6798 21.0685C96.9415 21.0685 96.1513 21.0296 95.3094 20.9519C94.4803 20.8612 93.7679 20.7382 93.172 20.5827V18.3094C93.742 18.3612 94.4285 18.4066 95.2316 18.4454C96.0477 18.4713 96.8184 18.4843 97.5438 18.4843C98.2822 18.4843 98.8651 18.3871 99.2925 18.1928C99.72 17.9856 99.9337 17.597 99.9337 17.027V16.5024C99.9337 16.0749 99.8042 15.7511 99.5451 15.5309C99.2861 15.2977 98.9298 15.1812 98.4765 15.1812H97.2524C95.8793 15.1812 94.8236 14.8832 94.0853 14.2874C93.3599 13.6786 92.9972 12.6488 92.9972 11.198V10.4985C92.9972 9.09952 93.3922 8.0762 94.1824 7.42853C94.9855 6.78086 96.1384 6.45702 97.641 6.45702C98.4311 6.45702 99.2148 6.50884 99.992 6.61247C100.782 6.71609 101.449 6.8262 101.993 6.94278V9.2161C101.397 9.17724 100.73 9.13838 99.992 9.09952C99.2666 9.06066 98.593 9.04123 97.9713 9.04123C97.2977 9.04123 96.7537 9.14486 96.3391 9.35212C95.9376 9.55937 95.7368 9.98683 95.7368 10.6345V11.0231C95.7368 11.5283 95.8793 11.891 96.1643 12.1112C96.4493 12.3314 96.8702 12.4415 97.4272 12.4415H98.8456C100.128 12.4415 101.087 12.7912 101.721 13.4907C102.356 14.1902 102.673 15.0711 102.673 16.1332V16.9493C102.673 18.0762 102.46 18.9376 102.032 19.5335C101.618 20.1294 101.035 20.5374 100.283 20.7576C99.5451 20.9649 98.6772 21.0685 97.6798 21.0685ZM109.044 21.0491C107.891 21.0491 106.971 20.9001 106.285 20.6022C105.598 20.2913 105.1 19.7537 104.789 18.9895C104.491 18.2123 104.342 17.1306 104.342 15.7446C104.342 14.3327 104.484 13.2381 104.769 12.4609C105.054 11.6837 105.533 11.1397 106.207 10.8288C106.881 10.5179 107.794 10.3625 108.947 10.3625C109.97 10.3625 110.793 10.4661 111.414 10.6734C112.049 10.8806 112.502 11.2433 112.774 11.7615C113.059 12.2796 113.202 13.0115 113.202 13.9571C113.202 15.0192 112.898 15.7511 112.289 16.1527C111.68 16.5542 110.857 16.755 109.821 16.755H107.198C107.211 17.2861 107.289 17.7071 107.431 18.018C107.574 18.3288 107.826 18.5555 108.189 18.698C108.565 18.8405 109.102 18.9117 109.802 18.9117H112.852V20.6022C112.347 20.7058 111.79 20.8094 111.181 20.913C110.585 21.0037 109.873 21.0491 109.044 21.0491ZM107.159 15.0451H109.53C109.918 15.0451 110.203 14.9674 110.385 14.812C110.566 14.6436 110.657 14.3651 110.657 13.9765C110.657 13.4065 110.521 13.0115 110.249 12.7912C109.989 12.5581 109.556 12.4415 108.947 12.4415C108.286 12.4415 107.82 12.6229 107.548 12.9855C107.289 13.3353 107.159 14.0218 107.159 15.0451ZM115.089 20.9519V10.5179H117.304L117.964 12.1112C118.34 11.6319 118.761 11.2239 119.227 10.8871C119.707 10.5503 120.27 10.3819 120.918 10.3819C121.06 10.3819 121.203 10.3884 121.345 10.4013C121.501 10.4143 121.643 10.4402 121.773 10.4791V13.4324C121.565 13.4065 121.352 13.3871 121.132 13.3742C120.924 13.3482 120.73 13.3353 120.549 13.3353C119.979 13.3353 119.493 13.4324 119.091 13.6267C118.69 13.8081 118.314 14.0866 117.964 14.4622V20.9519H115.089ZM125.928 20.9519L122.43 10.5179H125.403L127.657 18.29L129.969 10.5179H132.903L129.25 20.9519H125.928ZM134.622 8.98294C134.35 8.98294 134.214 8.85341 134.214 8.59434V6.69019C134.214 6.41816 134.35 6.28215 134.622 6.28215H136.837C137.083 6.28215 137.206 6.41816 137.206 6.69019V8.59434C137.206 8.85341 137.083 8.98294 136.837 8.98294H134.622ZM134.272 20.9519V10.5179H137.148V20.9519H134.272ZM143.418 21.0685C142.563 21.0685 141.806 20.913 141.145 20.6022C140.497 20.2913 139.986 19.7537 139.61 18.9895C139.234 18.2252 139.047 17.1566 139.047 15.7835C139.047 14.3586 139.221 13.2576 139.571 12.4804C139.921 11.6902 140.426 11.1397 141.087 10.8288C141.747 10.5179 142.55 10.3625 143.496 10.3625C144.131 10.3625 144.733 10.4013 145.303 10.4791C145.886 10.5438 146.495 10.6669 147.13 10.8482V12.4998H144.39C143.794 12.4998 143.315 12.5905 142.952 12.7718C142.589 12.9402 142.324 13.264 142.155 13.7433C142 14.2096 141.922 14.8832 141.922 15.7641C141.922 16.6449 142 17.312 142.155 17.7654C142.324 18.2058 142.589 18.5037 142.952 18.6591C143.328 18.8146 143.82 18.8923 144.429 18.8923H147.285V20.5244C146.806 20.6799 146.21 20.8094 145.497 20.913C144.785 21.0167 144.092 21.0685 143.418 21.0685ZM149.233 8.98294C148.96 8.98294 148.824 8.85341 148.824 8.59434V6.69019C148.824 6.41816 148.96 6.28215 149.233 6.28215H151.448C151.694 6.28215 151.817 6.41816 151.817 6.69019V8.59434C151.817 8.85341 151.694 8.98294 151.448 8.98294H149.233ZM148.883 20.9519V10.5179H151.758V20.9519H148.883ZM158.437 21.0491C157.284 21.0491 156.358 20.8871 155.658 20.5633C154.959 20.2265 154.447 19.6695 154.123 18.8923C153.813 18.1151 153.657 17.0529 153.657 15.7058C153.657 14.2809 153.819 13.1863 154.143 12.4221C154.467 11.6449 154.978 11.1073 155.678 10.8094C156.377 10.5114 157.297 10.3625 158.437 10.3625C159.59 10.3625 160.516 10.5179 161.215 10.8288C161.928 11.1397 162.44 11.6837 162.75 12.4609C163.074 13.2381 163.236 14.3198 163.236 15.7058C163.236 17.0918 163.081 18.1734 162.77 18.9506C162.459 19.7278 161.954 20.2718 161.254 20.5827C160.555 20.8936 159.616 21.0491 158.437 21.0491ZM158.437 18.7563C158.89 18.7563 159.259 18.6915 159.544 18.562C159.829 18.4325 160.037 18.154 160.166 17.7265C160.296 17.2861 160.361 16.6125 160.361 15.7058C160.361 14.7861 160.296 14.1125 160.166 13.685C160.037 13.2576 159.829 12.9791 159.544 12.8495C159.259 12.72 158.89 12.6552 158.437 12.6552C157.984 12.6552 157.614 12.72 157.329 12.8495C157.057 12.9791 156.857 13.2576 156.727 13.685C156.598 14.1125 156.533 14.7861 156.533 15.7058C156.533 16.6125 156.598 17.2861 156.727 17.7265C156.857 18.154 157.057 18.4325 157.329 18.562C157.614 18.6915 157.984 18.7563 158.437 18.7563ZM168.933 21.0685C168.493 21.0685 168.013 21.0491 167.495 21.0102C166.99 20.9843 166.504 20.939 166.038 20.8742C165.572 20.7965 165.189 20.7058 164.892 20.6022V18.9117H169.516C169.917 18.9117 170.215 18.8599 170.41 18.7563C170.604 18.6397 170.701 18.4066 170.701 18.0568V17.7265C170.701 17.4674 170.617 17.2667 170.449 17.1242C170.28 16.9817 169.969 16.9104 169.516 16.9104H167.884C167.288 16.9104 166.75 16.8262 166.271 16.6578C165.792 16.4765 165.41 16.1786 165.125 15.7641C164.853 15.3495 164.717 14.7861 164.717 14.0736V13.4713C164.717 12.8107 164.846 12.2537 165.105 11.8003C165.364 11.3469 165.798 11.0037 166.407 10.7705C167.016 10.5374 167.851 10.4208 168.914 10.4208C169.341 10.4208 169.794 10.4467 170.274 10.4985C170.766 10.5374 171.226 10.5956 171.653 10.6734C172.094 10.7511 172.443 10.8288 172.702 10.9065V12.5969H168.331C167.955 12.5969 167.67 12.6617 167.476 12.7912C167.281 12.9078 167.184 13.1345 167.184 13.4713V13.7822C167.184 14.119 167.288 14.3392 167.495 14.4428C167.702 14.5464 168.02 14.5983 168.447 14.5983H170.118C171.18 14.5983 171.951 14.8444 172.43 15.3366C172.923 15.8159 173.169 16.483 173.169 17.3379V18.2705C173.169 19.3327 172.8 20.0646 172.061 20.4662C171.336 20.8677 170.293 21.0685 168.933 21.0685Z" fill="#EDB02C"/>
<path d="M6.24944 43.0336C5.83964 43.0336 5.37008 42.9909 4.84075 42.9055C4.31143 42.8372 3.79918 42.6665 3.30401 42.3933C2.82591 42.1201 2.42465 41.7103 2.10022 41.1639C1.79287 40.6004 1.6392 39.832 1.6392 38.8588V28.2808C1.6392 27.1539 1.86117 26.2745 2.30512 25.6427C2.74907 25.011 3.30401 24.5755 3.96993 24.3365C4.63585 24.0804 5.30178 23.9523 5.9677 23.9523C7.8801 23.9523 9.47661 23.9865 10.7572 24.0548C12.0379 24.1231 13.1733 24.1999 14.1637 24.2853V27.4612H7.09465C6.56532 27.4612 6.15553 27.5893 5.86525 27.8454C5.57498 28.1015 5.42984 28.4942 5.42984 29.0236V31.7641L12.9343 31.969V34.9657L5.42984 35.1706V37.783C5.42984 38.449 5.58351 38.9014 5.89086 39.1405C6.21529 39.3625 6.59094 39.4734 7.01781 39.4734H14.1637V42.6494C13.0197 42.7689 11.7305 42.8628 10.2962 42.9311C8.86191 42.9994 7.51299 43.0336 6.24944 43.0336ZM21.7368 43.0592C21.1562 43.0592 20.5244 43.0336 19.8414 42.9824C19.1755 42.9482 18.5352 42.8884 17.9205 42.8031C17.3058 42.7006 16.8021 42.5811 16.4094 42.4445V40.2162H22.5051C23.0345 40.2162 23.4272 40.1479 23.6833 40.0113C23.9394 39.8576 24.0675 39.5503 24.0675 39.0893V38.6539C24.0675 38.3124 23.9565 38.0477 23.7345 37.8599C23.5126 37.672 23.1028 37.5781 22.5051 37.5781H20.3537C19.5682 37.5781 18.8596 37.4671 18.2279 37.2452C17.5961 37.0061 17.0924 36.6134 16.7167 36.067C16.3582 35.5206 16.1789 34.7778 16.1789 33.8387V33.0447C16.1789 32.1739 16.3496 31.4397 16.6911 30.8421C17.0326 30.2444 17.6046 29.7919 18.4071 29.4846C19.2097 29.1772 20.311 29.0236 21.7112 29.0236C22.2746 29.0236 22.8723 29.0577 23.504 29.126C24.1529 29.1772 24.759 29.2541 25.3225 29.3565C25.9031 29.459 26.3641 29.5614 26.7056 29.6639V31.8922H20.9428C20.4476 31.8922 20.072 31.9775 19.8158 32.1483C19.5597 32.302 19.4316 32.6008 19.4316 33.0447V33.4545C19.4316 33.8985 19.5682 34.1887 19.8414 34.3253C20.1146 34.4619 20.533 34.5302 21.0965 34.5302H23.2991C24.6993 34.5302 25.7152 34.8547 26.347 35.5035C26.9959 36.1353 27.3203 37.0147 27.3203 38.1416V39.371C27.3203 40.7711 26.8336 41.7359 25.8604 42.2652C24.9042 42.7945 23.5296 43.0592 21.7368 43.0592ZM29.6736 48.9757V29.1516H32.8496L33.4643 30.4579C33.9424 30.0822 34.4973 29.7407 35.1291 29.4334C35.7779 29.1089 36.4951 28.9467 37.2805 28.9467C38.988 28.9467 40.226 29.5785 40.9943 30.8421C41.7627 32.1056 42.1469 33.8387 42.1469 36.0414C42.1469 37.5098 42.0017 38.7734 41.7115 39.832C41.4212 40.8907 40.9175 41.7017 40.2003 42.2652C39.5003 42.8116 38.527 43.0848 37.2805 43.0848C36.6317 43.0848 35.9657 43.008 35.2827 42.8543C34.6168 42.7006 34.0107 42.4786 33.4643 42.1884V48.9757H29.6736ZM36.0511 39.9601C36.4438 39.9601 36.811 39.8576 37.1525 39.6527C37.511 39.4308 37.8013 39.038 38.0233 38.4746C38.2453 37.9111 38.3562 37.1 38.3562 36.0414C38.3562 34.5046 38.1343 33.446 37.6903 32.8654C37.2634 32.2849 36.717 31.9946 36.0511 31.9946C35.5218 31.9946 35.0352 32.08 34.5912 32.2507C34.1473 32.4215 33.7716 32.5922 33.4643 32.763V39.2942C33.8058 39.4991 34.207 39.6613 34.668 39.7808C35.1291 39.9003 35.5901 39.9601 36.0511 39.9601ZM50.4443 43.0336C48.9246 43.0336 47.7123 42.8372 46.8074 42.4445C45.9024 42.0347 45.245 41.3261 44.8352 40.3187C44.4425 39.2942 44.2461 37.8684 44.2461 36.0414C44.2461 34.1802 44.4339 32.7374 44.8096 31.7129C45.1852 30.6884 45.817 29.9712 46.7049 29.5614C47.5928 29.1516 48.7966 28.9467 50.3163 28.9467C51.6652 28.9467 52.7494 29.0833 53.569 29.3565C54.4057 29.6297 55.0033 30.1078 55.3619 30.7908C55.7376 31.4738 55.9254 32.4386 55.9254 33.685C55.9254 35.0852 55.5241 36.0499 54.7216 36.5792C53.9191 37.1086 52.8348 37.3732 51.4688 37.3732H48.0111C48.0282 38.0733 48.1307 38.6282 48.3185 39.038C48.5063 39.4478 48.8393 39.7466 49.3174 39.9345C49.8125 40.1223 50.5212 40.2162 51.4432 40.2162H55.4644V42.4445C54.7984 42.5811 54.0642 42.7177 53.2617 42.8543C52.4762 42.9738 51.5371 43.0336 50.4443 43.0336ZM47.9599 35.1193H51.0846C51.5969 35.1193 51.9725 35.0169 52.2116 34.812C52.4506 34.59 52.5702 34.2229 52.5702 33.7106C52.5702 32.9593 52.3909 32.4386 52.0323 32.1483C51.6908 31.8409 51.1188 31.6873 50.3163 31.6873C49.4454 31.6873 48.8307 31.9263 48.4722 32.4044C48.1307 32.8654 47.9599 33.7704 47.9599 35.1193ZM63.7656 43.0592C62.6386 43.0592 61.6398 42.8543 60.7689 42.4445C59.9152 42.0347 59.2407 41.3261 58.7456 40.3187C58.2504 39.3112 58.0028 37.9026 58.0028 36.0926C58.0028 34.2144 58.2333 32.763 58.6943 31.7385C59.1554 30.6969 59.8213 29.9712 60.6921 29.5614C61.5629 29.1516 62.6216 28.9467 63.868 28.9467C64.7047 28.9467 65.4987 28.998 66.25 29.1004C67.0184 29.1858 67.8209 29.348 68.6576 29.587V31.7641H65.0462C64.2608 31.7641 63.629 31.8836 63.1509 32.1227C62.6728 32.3447 62.3228 32.7715 62.1008 33.4033C61.8959 34.018 61.7934 34.9059 61.7934 36.067C61.7934 37.2281 61.8959 38.1075 62.1008 38.7051C62.3228 39.2856 62.6728 39.6783 63.1509 39.8832C63.6461 40.0881 64.2949 40.1906 65.0974 40.1906H68.8625V42.342C68.2307 42.5469 67.4452 42.7177 66.5061 42.8543C65.567 42.9909 64.6535 43.0592 63.7656 43.0592ZM71.4297 27.1282C71.0711 27.1282 70.8919 26.9575 70.8919 26.616V24.106C70.8919 23.7474 71.0711 23.5681 71.4297 23.5681H74.3495C74.674 23.5681 74.8362 23.7474 74.8362 24.106V26.616C74.8362 26.9575 74.674 27.1282 74.3495 27.1282H71.4297ZM70.9687 42.9055V29.1516H74.7593V42.9055H70.9687ZM80.5918 43.0592C79.5502 43.0592 78.705 42.7518 78.0561 42.1371C77.4073 41.5224 77.0829 40.6687 77.0829 39.5759V38.3465C77.0829 37.3049 77.45 36.4512 78.1842 35.7853C78.9184 35.1023 80.0624 34.7608 81.6163 34.7608H85.1252V33.8131C85.1252 33.3862 85.0483 33.0362 84.8947 32.763C84.7581 32.4727 84.4763 32.2678 84.0495 32.1483C83.6226 32.0117 82.9823 31.9434 82.1285 31.9434H78.0049V29.7407C78.6879 29.5358 79.4648 29.3565 80.3356 29.2029C81.2065 29.0492 82.2651 28.9723 83.5116 28.9723C84.6556 28.9723 85.6289 29.1089 86.4314 29.3821C87.2339 29.6553 87.8486 30.1249 88.2755 30.7908C88.7024 31.4568 88.9158 32.3788 88.9158 33.557V42.9055H85.9192L85.3045 41.4456C85.1508 41.6164 84.8434 41.8298 84.3824 42.0859C83.9214 42.325 83.3579 42.5469 82.692 42.7518C82.0431 42.9567 81.3431 43.0592 80.5918 43.0592ZM82.5127 40.4211C82.803 40.4211 83.1359 40.3784 83.5116 40.293C83.9043 40.1906 84.2544 40.0881 84.5617 39.9857C84.8861 39.8662 85.074 39.7893 85.1252 39.7552V36.5536L82.8201 36.7073C81.5224 36.8098 80.8735 37.3732 80.8735 38.3977V38.9612C80.8735 39.5076 81.0272 39.8918 81.3345 40.1138C81.659 40.3187 82.0517 40.4211 82.5127 40.4211ZM96.0567 42.9567C94.6053 42.9567 93.5211 42.5982 92.8039 41.881C92.1038 41.1639 91.7538 40.0284 91.7538 38.4746V23.3632H95.5444V37.9111C95.5444 38.6795 95.664 39.2173 95.903 39.5247C96.1421 39.8149 96.5006 39.9942 96.9787 40.0625L98.0288 40.2162V42.9567H96.0567ZM100.244 27.1282C99.8851 27.1282 99.7059 26.9575 99.7059 26.616V24.106C99.7059 23.7474 99.8851 23.5681 100.244 23.5681H103.164C103.488 23.5681 103.65 23.7474 103.65 24.106V26.616C103.65 26.9575 103.488 27.1282 103.164 27.1282H100.244ZM99.7827 42.9055V29.1516H103.573V42.9055H99.7827ZM106.179 42.9055V40.165L112.659 32.1995H105.922V29.1516H117.064V31.8922L110.558 39.8576H117.064V42.9055H106.179ZM122.337 43.0592C121.295 43.0592 120.45 42.7518 119.801 42.1371C119.153 41.5224 118.828 40.6687 118.828 39.5759V38.3465C118.828 37.3049 119.195 36.4512 119.929 35.7853C120.664 35.1023 121.808 34.7608 123.362 34.7608H126.87V33.8131C126.87 33.3862 126.794 33.0362 126.64 32.763C126.503 32.4727 126.222 32.2678 125.795 32.1483C125.368 32.0117 124.728 31.9434 123.874 31.9434H119.75V29.7407C120.433 29.5358 121.21 29.3565 122.081 29.2029C122.952 29.0492 124.01 28.9723 125.257 28.9723C126.401 28.9723 127.374 29.1089 128.177 29.3821C128.979 29.6553 129.594 30.1249 130.021 30.7908C130.448 31.4568 130.661 32.3788 130.661 33.557V42.9055H127.664L127.05 41.4456C126.896 41.6164 126.589 41.8298 126.128 42.0859C125.667 42.325 125.103 42.5469 124.437 42.7518C123.788 42.9567 123.088 43.0592 122.337 43.0592ZM124.258 40.4211C124.548 40.4211 124.881 40.3784 125.257 40.293C125.65 40.1906 126 40.0881 126.307 39.9857C126.631 39.8662 126.819 39.7893 126.87 39.7552V36.5536L124.565 36.7073C123.268 36.8098 122.619 37.3732 122.619 38.3977V38.9612C122.619 39.5076 122.772 39.8918 123.08 40.1138C123.404 40.3187 123.797 40.4211 124.258 40.4211ZM138.007 43.0592C136.385 43.0592 135.155 42.5384 134.319 41.4968C133.499 40.4382 133.089 38.6624 133.089 36.1694C133.089 34.479 133.243 33.1045 133.55 32.0458C133.875 30.9701 134.413 30.1847 135.164 29.6895C135.915 29.1943 136.948 28.9467 138.263 28.9467C138.878 28.9467 139.492 29.015 140.107 29.1516C140.739 29.2712 141.294 29.4163 141.772 29.587V23.3632H145.588V42.9055H142.387L141.772 41.5993C141.328 41.992 140.756 42.3335 140.056 42.6238C139.373 42.9141 138.69 43.0592 138.007 43.0592ZM139.339 40.0113C139.851 40.0113 140.312 39.9259 140.722 39.7552C141.149 39.5844 141.499 39.4137 141.772 39.2429V32.3276C141.447 32.191 141.089 32.0715 140.696 31.969C140.321 31.8495 139.919 31.7897 139.492 31.7897C138.861 31.7897 138.348 31.9007 137.956 32.1227C137.58 32.3447 137.307 32.763 137.136 33.3777C136.965 33.9753 136.88 34.8461 136.88 35.9902C136.88 37.0659 136.957 37.894 137.11 38.4746C137.281 39.0551 137.546 39.4564 137.904 39.6783C138.263 39.9003 138.741 40.0113 139.339 40.0113ZM154.322 43.0336C152.803 43.0336 151.582 42.8201 150.66 42.3933C149.738 41.9493 149.063 41.2151 148.636 40.1906C148.226 39.1661 148.022 37.766 148.022 35.9902C148.022 34.1119 148.235 32.6691 148.662 31.6617C149.089 30.6372 149.763 29.9285 150.685 29.5358C151.607 29.1431 152.82 28.9467 154.322 28.9467C155.842 28.9467 157.063 29.1516 157.985 29.5614C158.924 29.9712 159.598 30.6884 160.008 31.7129C160.435 32.7374 160.648 34.1631 160.648 35.9902C160.648 37.8172 160.444 39.2429 160.034 40.2674C159.624 41.2919 158.958 42.0091 158.036 42.4189C157.114 42.8287 155.876 43.0336 154.322 43.0336ZM154.322 40.0113C154.92 40.0113 155.406 39.9259 155.782 39.7552C156.158 39.5844 156.431 39.2173 156.602 38.6539C156.772 38.0733 156.858 37.1854 156.858 35.9902C156.858 34.7778 156.772 33.8899 156.602 33.3265C156.431 32.763 156.158 32.3959 155.782 32.2251C155.406 32.0544 154.92 31.969 154.322 31.969C153.725 31.969 153.238 32.0544 152.862 32.2251C152.504 32.3959 152.239 32.763 152.068 33.3265C151.898 33.8899 151.812 34.7778 151.812 35.9902C151.812 37.1854 151.898 38.0733 152.068 38.6539C152.239 39.2173 152.504 39.5844 152.862 39.7552C153.238 39.9259 153.725 40.0113 154.322 40.0113ZM168.158 43.0592C167.577 43.0592 166.946 43.0336 166.263 42.9824C165.597 42.9482 164.956 42.8884 164.342 42.8031C163.727 42.7006 163.223 42.5811 162.831 42.4445V40.2162H168.926C169.456 40.2162 169.848 40.1479 170.104 40.0113C170.361 39.8576 170.489 39.5503 170.489 39.0893V38.6539C170.489 38.3124 170.378 38.0477 170.156 37.8599C169.934 37.672 169.524 37.5781 168.926 37.5781H166.775C165.989 37.5781 165.281 37.4671 164.649 37.2452C164.017 37.0061 163.514 36.6134 163.138 36.067C162.779 35.5206 162.6 34.7778 162.6 33.8387V33.0447C162.6 32.1739 162.771 31.4397 163.112 30.8421C163.454 30.2444 164.026 29.7919 164.828 29.4846C165.631 29.1772 166.732 29.0236 168.132 29.0236C168.696 29.0236 169.293 29.0577 169.925 29.126C170.574 29.1772 171.18 29.2541 171.744 29.3565C172.324 29.459 172.785 29.5614 173.127 29.6639V31.8922H167.364C166.869 31.8922 166.493 31.9775 166.237 32.1483C165.981 32.302 165.853 32.6008 165.853 33.0447V33.4545C165.853 33.8985 165.989 34.1887 166.263 34.3253C166.536 34.4619 166.954 34.5302 167.518 34.5302H169.72C171.12 34.5302 172.136 34.8547 172.768 35.5035C173.417 36.1353 173.741 37.0147 173.741 38.1416V39.371C173.741 40.7711 173.255 41.7359 172.282 42.2652C171.325 42.7945 169.951 43.0592 168.158 43.0592Z" fill="black"/>
<path d="M198.873 39.3768L194.412 22.3322L189.877 39.3768H186.214L179.897 15.9021H183.535L188.033 32.959L192.556 15.9021H196.157L200.729 32.959L205.215 15.9021H208.853L202.536 39.3768H198.873ZM210.537 15.9757L214.175 15.6689V21.4241L214.113 23.5715H214.248C215.932 22.9335 217.296 22.6267 218.943 22.6267C221.881 22.6267 223.872 23.9765 223.872 29.1181V39.3768H220.234V29.4249C220.234 26.3326 218.747 25.9276 217.063 25.9276C216.006 25.9276 215.109 26.1608 214.187 26.4307V39.3768H210.537V15.9757ZM228.862 16.2089C230.742 16.2089 231.049 17.3133 231.049 18.5649C231.049 19.8043 230.656 20.9578 228.862 20.9578C227.067 20.9578 226.711 19.8166 226.711 18.5649C226.711 17.3133 227.043 16.2089 228.862 16.2089ZM227.043 22.8721H230.681V39.3768H227.043V22.8721ZM233.753 22.8721H236.224L236.715 24.2219H236.949C237.907 23.3875 239.431 22.6389 241.41 22.6389C241.644 22.6389 241.902 22.6389 242.172 22.6758V26.308C241.508 26.2098 240.82 26.1117 240.12 26.1117C239.124 26.1117 238.338 26.3448 237.379 26.7866V39.4013H233.741V22.8721H233.753ZM243.733 39.3768V15.9757L247.371 15.6689V39.3768H243.733ZM273.218 22.6267C278.38 22.6267 280.358 25.719 280.358 31.2042C280.358 36.3458 278.502 39.7081 273.144 39.7081C267.785 39.7081 265.905 36.3458 265.905 31.2042C265.917 25.719 268.068 22.6267 273.218 22.6267ZM276.659 31.2042C276.659 28.0751 276.167 25.5227 273.254 25.5227C270.317 25.5227 269.58 27.9769 269.58 31.2042C269.58 34.1983 270.17 36.7876 273.082 36.7876C275.995 36.7876 276.659 34.3333 276.659 31.2042ZM289.527 22.6267C294.689 22.6267 296.668 25.719 296.668 31.2042C296.668 36.3458 294.812 39.7081 289.465 39.7081C284.107 39.7081 282.226 36.3458 282.226 31.2042C282.214 25.719 284.365 22.6267 289.527 22.6267ZM292.956 31.2042C292.956 28.0751 292.464 25.5227 289.551 25.5227C286.614 25.5227 285.877 27.9769 285.877 31.2042C285.877 34.1983 286.467 36.7876 289.379 36.7876C292.305 36.7876 292.956 34.3333 292.956 31.2042ZM299.077 39.3768V15.9757L302.714 15.6689V39.3768H299.077Z" fill="black"/>
<path d="M274.103 4.88241C271.067 1.60601 259.736 7.82748 248.183 17.5339V18.7979C259.502 9.1773 270.158 3.52031 272.616 6.17087C273.869 7.5207 272.763 11.7297 269.937 16.6259C269.531 16.8222 269.076 17.2026 268.658 17.8162C265.07 23.0682 259.797 29.4492 254.07 34.9467C239.334 49.083 225.064 57.6605 222.176 54.5436C220.529 52.7643 223.233 47.0214 228.162 40.211H226.797C221.574 47.4632 218.747 53.7092 220.837 55.9671C224.475 59.8939 240.98 50.2978 255.692 36.1983C262.353 29.8051 267.417 24.3812 270.539 19.5709C271.436 18.1843 271.473 17.1903 271.104 16.7609C274.644 11.1529 275.91 6.82124 274.103 4.88241" fill="#EEB111"/>
<path d="M253.947 26.6637C254.844 26.3569 255.729 26.1974 256.663 26.1974C258.543 26.1974 259.76 26.7496 260.19 28.5902C261.124 27.5472 262.034 26.4796 262.918 25.412C261.898 23.4977 260.264 22.6387 258.31 22.6387C256.491 22.6387 254.635 23.4732 253.553 24.0867H253.393L253.098 22.8719H250.358V38.4194C251.538 37.3641 252.693 36.2842 253.836 35.1921C253.947 31.658 253.947 29.9278 253.947 26.6637ZM260.325 31.6335C260.079 35.3762 258.666 36.3824 256.638 36.3824C256.233 36.3824 255.864 36.3824 255.507 36.3701C253.824 37.9776 252.115 39.5361 250.358 41.0577V47.2546L253.996 46.8497V39.2907H254.094C255.114 39.487 256.245 39.622 257.265 39.622C261.493 39.622 264.049 36.7628 264.049 30.9831C264.049 29.8787 263.963 28.8847 263.803 28.0135C262.648 29.2406 261.493 30.4432 260.325 31.6335Z" fill="black"/>
</svg>
