<svg width="80" height="80" viewBox="0 0 80 80" fill="none" xmlns="http://www.w3.org/2000/svg">
<mask id="path-1-outside-1" maskUnits="userSpaceOnUse" x="7.5" y="7.5" width="65" height="65" fill="black">
<rect fill="white" x="7.5" y="7.5" width="65" height="65"/>
<path fill-rule="evenodd" clip-rule="evenodd" d="M27.5719 68.573L27.5626 68.5689C23.868 66.96 20.5778 64.7475 17.7113 61.9408L17.6982 61.9279L17.6851 61.9149C14.8072 59.0369 12.5566 55.7039 10.943 51.9387C9.30692 48.1212 8.5 44.0496 8.5 39.76C8.5 35.4743 9.30551 31.425 10.947 27.652C12.5536 23.9062 14.7658 20.5846 17.5792 17.7113L17.5921 17.6982L17.6051 17.6851C20.4831 14.8072 23.8161 12.5566 27.5813 10.943C31.3988 9.30692 35.4704 8.5 39.76 8.5C44.0496 8.5 48.1212 9.30692 51.9387 10.943C55.6992 12.5546 59.0073 14.8039 61.8351 17.6851C64.7161 20.5128 66.9654 23.8208 68.577 27.5813C70.2131 31.3988 71.02 35.4704 71.02 39.76C71.02 44.0496 70.2131 48.1212 68.577 51.9387C66.9634 55.7039 64.7128 59.0369 61.8349 61.9149C59.0035 64.7463 55.695 66.9672 51.9387 68.577C48.1212 70.2131 44.0496 71.02 39.76 71.02C35.4704 71.02 31.3988 70.2131 27.5813 68.577L27.5719 68.573ZM59.36 20.16C56.8533 17.6 53.92 15.6 50.56 14.16C47.2 12.72 43.6 12 39.76 12C35.92 12 32.32 12.72 28.96 14.16C25.6 15.6 22.64 17.6 20.08 20.16C17.5733 22.72 15.6 25.68 14.16 29.04C12.72 32.3467 12 35.92 12 39.76C12 43.6 12.72 47.2 14.16 50.56C15.6 53.92 17.6 56.88 20.16 59.44C22.72 61.9467 25.6533 63.92 28.96 65.36C32.32 66.8 35.92 67.52 39.76 67.52C43.6 67.52 47.2 66.8 50.56 65.36C53.92 63.92 56.8533 61.9467 59.36 59.44C61.92 56.88 63.92 53.92 65.36 50.56C66.8 47.2 67.52 43.6 67.52 39.76C67.52 35.92 66.8 32.32 65.36 28.96C63.92 25.6 61.92 22.6667 59.36 20.16ZM29.2723 34.0979L29.2851 34.0851C29.2895 34.0808 29.2932 34.0769 29.2964 34.0735C29.2981 34.0583 29.3 34.0342 29.3 34C29.3 33.9658 29.2981 33.9417 29.2964 33.9265C29.2932 33.9231 29.2895 33.9192 29.2851 33.9149L29.2723 33.9021C29.2526 33.9009 29.2285 33.9 29.2 33.9C29.1658 33.9 29.1417 33.9019 29.1265 33.9036C29.1231 33.9068 29.1192 33.9105 29.1149 33.9149C29.1105 33.9192 29.1068 33.9231 29.1036 33.9265C29.1019 33.9417 29.1 33.9658 29.1 34C29.1 34.0342 29.1019 34.0583 29.1036 34.0735C29.1068 34.0769 29.1105 34.0808 29.1149 34.0851C29.1192 34.0895 29.1231 34.0932 29.1265 34.0964C29.1417 34.0981 29.1658 34.1 29.2 34.1C29.2285 34.1 29.2526 34.0991 29.2723 34.0979ZM50.4162 34.0958C50.3917 34.0982 50.3599 34.1 50.32 34.1C50.2858 34.1 50.2617 34.0981 50.2465 34.0964C50.2431 34.0932 50.2392 34.0895 50.2349 34.0851C50.2305 34.0808 50.2268 34.0769 50.2236 34.0735C50.2219 34.0583 50.22 34.0342 50.22 34C50.22 33.9658 50.2219 33.9417 50.2236 33.9265C50.2268 33.9231 50.2305 33.9192 50.2349 33.9149C50.2392 33.9105 50.2431 33.9068 50.2465 33.9036C50.2617 33.9019 50.2858 33.9 50.32 33.9C50.3542 33.9 50.3783 33.9019 50.3935 33.9036C50.3969 33.9068 50.4008 33.9105 50.4051 33.9149C50.4095 33.9192 50.4132 33.9231 50.4164 33.9265C50.4181 33.9417 50.42 33.9658 50.42 34C50.42 34.0389 50.4184 34.0707 50.4162 34.0958ZM49.76 44.8L52.56 46.32C52.5568 46.3261 52.5536 46.3322 52.5504 46.3383C52.4371 46.5543 52.322 46.7662 52.205 46.974C51.7325 47.813 51.2295 48.5851 50.6959 49.2905C50.0105 50.1967 49.2746 50.9926 48.4882 51.6784C46.0409 53.8128 43.1048 54.88 39.68 54.88C36.6081 54.88 33.9288 54.0048 31.6421 52.2544C30.5921 51.4507 29.6249 50.4624 28.7405 49.2897C28.3181 48.7295 27.9145 48.1272 27.5298 47.4828C27.3068 47.1093 27.0903 46.7217 26.88 46.32L29.6 44.8C29.6135 44.8251 29.6271 44.8502 29.6407 44.8751C29.7107 45.0036 29.7819 45.1301 29.8541 45.2546C30.8997 47.0575 32.1722 48.439 33.6716 49.3991C35.3799 50.493 37.3827 51.04 39.68 51.04C42.2311 51.04 44.4279 50.3492 46.2704 48.9676C47.6143 47.9599 48.7696 46.5849 49.7366 44.8423C49.7444 44.8282 49.7522 44.8141 49.76 44.8ZM31.76 36.56C31.12 37.2533 30.2667 37.6 29.2 37.6C28.1867 37.6 27.3333 37.2533 26.64 36.56C25.9467 35.8667 25.6 35.0133 25.6 34C25.6 32.9867 25.9467 32.1333 26.64 31.44C27.3333 30.7467 28.1867 30.4 29.2 30.4C30.2667 30.4 31.12 30.7467 31.76 31.44C32.4533 32.1333 32.8 32.9867 32.8 34C32.8 35.0133 32.4533 35.8667 31.76 36.56ZM52.88 36.64C52.1867 37.28 51.3333 37.6 50.32 37.6C49.3067 37.6 48.4533 37.2533 47.76 36.56C47.0667 35.8667 46.72 35.0133 46.72 34C46.72 32.9867 47.0667 32.1333 47.76 31.44C48.4533 30.7467 49.3067 30.4 50.32 30.4C51.3333 30.4 52.1867 30.7467 52.88 31.44C53.5733 32.1333 53.92 32.9867 53.92 34C53.92 35.0667 53.5733 35.9467 52.88 36.64Z"/>
</mask>
<path fill-rule="evenodd" clip-rule="evenodd" d="M27.5719 68.573L27.5626 68.5689C23.868 66.96 20.5778 64.7475 17.7113 61.9408L17.6982 61.9279L17.6851 61.9149C14.8072 59.0369 12.5566 55.7039 10.943 51.9387C9.30692 48.1212 8.5 44.0496 8.5 39.76C8.5 35.4743 9.30551 31.425 10.947 27.652C12.5536 23.9062 14.7658 20.5846 17.5792 17.7113L17.5921 17.6982L17.6051 17.6851C20.4831 14.8072 23.8161 12.5566 27.5813 10.943C31.3988 9.30692 35.4704 8.5 39.76 8.5C44.0496 8.5 48.1212 9.30692 51.9387 10.943C55.6992 12.5546 59.0073 14.8039 61.8351 17.6851C64.7161 20.5128 66.9654 23.8208 68.577 27.5813C70.2131 31.3988 71.02 35.4704 71.02 39.76C71.02 44.0496 70.2131 48.1212 68.577 51.9387C66.9634 55.7039 64.7128 59.0369 61.8349 61.9149C59.0035 64.7463 55.695 66.9672 51.9387 68.577C48.1212 70.2131 44.0496 71.02 39.76 71.02C35.4704 71.02 31.3988 70.2131 27.5813 68.577L27.5719 68.573ZM59.36 20.16C56.8533 17.6 53.92 15.6 50.56 14.16C47.2 12.72 43.6 12 39.76 12C35.92 12 32.32 12.72 28.96 14.16C25.6 15.6 22.64 17.6 20.08 20.16C17.5733 22.72 15.6 25.68 14.16 29.04C12.72 32.3467 12 35.92 12 39.76C12 43.6 12.72 47.2 14.16 50.56C15.6 53.92 17.6 56.88 20.16 59.44C22.72 61.9467 25.6533 63.92 28.96 65.36C32.32 66.8 35.92 67.52 39.76 67.52C43.6 67.52 47.2 66.8 50.56 65.36C53.92 63.92 56.8533 61.9467 59.36 59.44C61.92 56.88 63.92 53.92 65.36 50.56C66.8 47.2 67.52 43.6 67.52 39.76C67.52 35.92 66.8 32.32 65.36 28.96C63.92 25.6 61.92 22.6667 59.36 20.16ZM29.2723 34.0979L29.2851 34.0851C29.2895 34.0808 29.2932 34.0769 29.2964 34.0735C29.2981 34.0583 29.3 34.0342 29.3 34C29.3 33.9658 29.2981 33.9417 29.2964 33.9265C29.2932 33.9231 29.2895 33.9192 29.2851 33.9149L29.2723 33.9021C29.2526 33.9009 29.2285 33.9 29.2 33.9C29.1658 33.9 29.1417 33.9019 29.1265 33.9036C29.1231 33.9068 29.1192 33.9105 29.1149 33.9149C29.1105 33.9192 29.1068 33.9231 29.1036 33.9265C29.1019 33.9417 29.1 33.9658 29.1 34C29.1 34.0342 29.1019 34.0583 29.1036 34.0735C29.1068 34.0769 29.1105 34.0808 29.1149 34.0851C29.1192 34.0895 29.1231 34.0932 29.1265 34.0964C29.1417 34.0981 29.1658 34.1 29.2 34.1C29.2285 34.1 29.2526 34.0991 29.2723 34.0979ZM50.4162 34.0958C50.3917 34.0982 50.3599 34.1 50.32 34.1C50.2858 34.1 50.2617 34.0981 50.2465 34.0964C50.2431 34.0932 50.2392 34.0895 50.2349 34.0851C50.2305 34.0808 50.2268 34.0769 50.2236 34.0735C50.2219 34.0583 50.22 34.0342 50.22 34C50.22 33.9658 50.2219 33.9417 50.2236 33.9265C50.2268 33.9231 50.2305 33.9192 50.2349 33.9149C50.2392 33.9105 50.2431 33.9068 50.2465 33.9036C50.2617 33.9019 50.2858 33.9 50.32 33.9C50.3542 33.9 50.3783 33.9019 50.3935 33.9036C50.3969 33.9068 50.4008 33.9105 50.4051 33.9149C50.4095 33.9192 50.4132 33.9231 50.4164 33.9265C50.4181 33.9417 50.42 33.9658 50.42 34C50.42 34.0389 50.4184 34.0707 50.4162 34.0958ZM49.76 44.8L52.56 46.32C52.5568 46.3261 52.5536 46.3322 52.5504 46.3383C52.4371 46.5543 52.322 46.7662 52.205 46.974C51.7325 47.813 51.2295 48.5851 50.6959 49.2905C50.0105 50.1967 49.2746 50.9926 48.4882 51.6784C46.0409 53.8128 43.1048 54.88 39.68 54.88C36.6081 54.88 33.9288 54.0048 31.6421 52.2544C30.5921 51.4507 29.6249 50.4624 28.7405 49.2897C28.3181 48.7295 27.9145 48.1272 27.5298 47.4828C27.3068 47.1093 27.0903 46.7217 26.88 46.32L29.6 44.8C29.6135 44.8251 29.6271 44.8502 29.6407 44.8751C29.7107 45.0036 29.7819 45.1301 29.8541 45.2546C30.8997 47.0575 32.1722 48.439 33.6716 49.3991C35.3799 50.493 37.3827 51.04 39.68 51.04C42.2311 51.04 44.4279 50.3492 46.2704 48.9676C47.6143 47.9599 48.7696 46.5849 49.7366 44.8423C49.7444 44.8282 49.7522 44.8141 49.76 44.8ZM31.76 36.56C31.12 37.2533 30.2667 37.6 29.2 37.6C28.1867 37.6 27.3333 37.2533 26.64 36.56C25.9467 35.8667 25.6 35.0133 25.6 34C25.6 32.9867 25.9467 32.1333 26.64 31.44C27.3333 30.7467 28.1867 30.4 29.2 30.4C30.2667 30.4 31.12 30.7467 31.76 31.44C32.4533 32.1333 32.8 32.9867 32.8 34C32.8 35.0133 32.4533 35.8667 31.76 36.56ZM52.88 36.64C52.1867 37.28 51.3333 37.6 50.32 37.6C49.3067 37.6 48.4533 37.2533 47.76 36.56C47.0667 35.8667 46.72 35.0133 46.72 34C46.72 32.9867 47.0667 32.1333 47.76 31.44C48.4533 30.7467 49.3067 30.4 50.32 30.4C51.3333 30.4 52.1867 30.7467 52.88 31.44C53.5733 32.1333 53.92 32.9867 53.92 34C53.92 35.0667 53.5733 35.9467 52.88 36.64Z" fill="#2D2D2D"/>
<path fill-rule="evenodd" clip-rule="evenodd" d="M27.5719 68.573L27.5626 68.5689C23.868 66.96 20.5778 64.7475 17.7113 61.9408L17.6982 61.9279L17.6851 61.9149C14.8072 59.0369 12.5566 55.7039 10.943 51.9387C9.30692 48.1212 8.5 44.0496 8.5 39.76C8.5 35.4743 9.30551 31.425 10.947 27.652C12.5536 23.9062 14.7658 20.5846 17.5792 17.7113L17.5921 17.6982L17.6051 17.6851C20.4831 14.8072 23.8161 12.5566 27.5813 10.943C31.3988 9.30692 35.4704 8.5 39.76 8.5C44.0496 8.5 48.1212 9.30692 51.9387 10.943C55.6992 12.5546 59.0073 14.8039 61.8351 17.6851C64.7161 20.5128 66.9654 23.8208 68.577 27.5813C70.2131 31.3988 71.02 35.4704 71.02 39.76C71.02 44.0496 70.2131 48.1212 68.577 51.9387C66.9634 55.7039 64.7128 59.0369 61.8349 61.9149C59.0035 64.7463 55.695 66.9672 51.9387 68.577C48.1212 70.2131 44.0496 71.02 39.76 71.02C35.4704 71.02 31.3988 70.2131 27.5813 68.577L27.5719 68.573ZM59.36 20.16C56.8533 17.6 53.92 15.6 50.56 14.16C47.2 12.72 43.6 12 39.76 12C35.92 12 32.32 12.72 28.96 14.16C25.6 15.6 22.64 17.6 20.08 20.16C17.5733 22.72 15.6 25.68 14.16 29.04C12.72 32.3467 12 35.92 12 39.76C12 43.6 12.72 47.2 14.16 50.56C15.6 53.92 17.6 56.88 20.16 59.44C22.72 61.9467 25.6533 63.92 28.96 65.36C32.32 66.8 35.92 67.52 39.76 67.52C43.6 67.52 47.2 66.8 50.56 65.36C53.92 63.92 56.8533 61.9467 59.36 59.44C61.92 56.88 63.92 53.92 65.36 50.56C66.8 47.2 67.52 43.6 67.52 39.76C67.52 35.92 66.8 32.32 65.36 28.96C63.92 25.6 61.92 22.6667 59.36 20.16ZM29.2723 34.0979L29.2851 34.0851C29.2895 34.0808 29.2932 34.0769 29.2964 34.0735C29.2981 34.0583 29.3 34.0342 29.3 34C29.3 33.9658 29.2981 33.9417 29.2964 33.9265C29.2932 33.9231 29.2895 33.9192 29.2851 33.9149L29.2723 33.9021C29.2526 33.9009 29.2285 33.9 29.2 33.9C29.1658 33.9 29.1417 33.9019 29.1265 33.9036C29.1231 33.9068 29.1192 33.9105 29.1149 33.9149C29.1105 33.9192 29.1068 33.9231 29.1036 33.9265C29.1019 33.9417 29.1 33.9658 29.1 34C29.1 34.0342 29.1019 34.0583 29.1036 34.0735C29.1068 34.0769 29.1105 34.0808 29.1149 34.0851C29.1192 34.0895 29.1231 34.0932 29.1265 34.0964C29.1417 34.0981 29.1658 34.1 29.2 34.1C29.2285 34.1 29.2526 34.0991 29.2723 34.0979ZM50.4162 34.0958C50.3917 34.0982 50.3599 34.1 50.32 34.1C50.2858 34.1 50.2617 34.0981 50.2465 34.0964C50.2431 34.0932 50.2392 34.0895 50.2349 34.0851C50.2305 34.0808 50.2268 34.0769 50.2236 34.0735C50.2219 34.0583 50.22 34.0342 50.22 34C50.22 33.9658 50.2219 33.9417 50.2236 33.9265C50.2268 33.9231 50.2305 33.9192 50.2349 33.9149C50.2392 33.9105 50.2431 33.9068 50.2465 33.9036C50.2617 33.9019 50.2858 33.9 50.32 33.9C50.3542 33.9 50.3783 33.9019 50.3935 33.9036C50.3969 33.9068 50.4008 33.9105 50.4051 33.9149C50.4095 33.9192 50.4132 33.9231 50.4164 33.9265C50.4181 33.9417 50.42 33.9658 50.42 34C50.42 34.0389 50.4184 34.0707 50.4162 34.0958ZM49.76 44.8L52.56 46.32C52.5568 46.3261 52.5536 46.3322 52.5504 46.3383C52.4371 46.5543 52.322 46.7662 52.205 46.974C51.7325 47.813 51.2295 48.5851 50.6959 49.2905C50.0105 50.1967 49.2746 50.9926 48.4882 51.6784C46.0409 53.8128 43.1048 54.88 39.68 54.88C36.6081 54.88 33.9288 54.0048 31.6421 52.2544C30.5921 51.4507 29.6249 50.4624 28.7405 49.2897C28.3181 48.7295 27.9145 48.1272 27.5298 47.4828C27.3068 47.1093 27.0903 46.7217 26.88 46.32L29.6 44.8C29.6135 44.8251 29.6271 44.8502 29.6407 44.8751C29.7107 45.0036 29.7819 45.1301 29.8541 45.2546C30.8997 47.0575 32.1722 48.439 33.6716 49.3991C35.3799 50.493 37.3827 51.04 39.68 51.04C42.2311 51.04 44.4279 50.3492 46.2704 48.9676C47.6143 47.9599 48.7696 46.5849 49.7366 44.8423C49.7444 44.8282 49.7522 44.8141 49.76 44.8ZM31.76 36.56C31.12 37.2533 30.2667 37.6 29.2 37.6C28.1867 37.6 27.3333 37.2533 26.64 36.56C25.9467 35.8667 25.6 35.0133 25.6 34C25.6 32.9867 25.9467 32.1333 26.64 31.44C27.3333 30.7467 28.1867 30.4 29.2 30.4C30.2667 30.4 31.12 30.7467 31.76 31.44C32.4533 32.1333 32.8 32.9867 32.8 34C32.8 35.0133 32.4533 35.8667 31.76 36.56ZM52.88 36.64C52.1867 37.28 51.3333 37.6 50.32 37.6C49.3067 37.6 48.4533 37.2533 47.76 36.56C47.0667 35.8667 46.72 35.0133 46.72 34C46.72 32.9867 47.0667 32.1333 47.76 31.44C48.4533 30.7467 49.3067 30.4 50.32 30.4C51.3333 30.4 52.1867 30.7467 52.88 31.44C53.5733 32.1333 53.92 32.9867 53.92 34C53.92 35.0667 53.5733 35.9467 52.88 36.64Z" stroke="#2D2D2D" stroke-width="1.25" mask="url(#path-1-outside-1)"/>
<path d="M29 34.6875C29.3128 34.6875 29.6032 34.5926 29.8196 34.4303C30.0361 34.268 30.1875 34.0294 30.1875 33.75C30.1875 33.4706 30.0361 33.232 29.8196 33.0697C29.6032 32.9074 29.3128 32.8125 29 32.8125C28.6872 32.8125 28.3968 32.9074 28.1804 33.0697C27.9639 33.232 27.8125 33.4706 27.8125 33.75C27.8125 34.0294 27.9639 34.268 28.1804 34.4303C28.3968 34.5926 28.6872 34.6875 29 34.6875Z" fill="#2D2D2D" stroke="#2D2D2D" stroke-width="0.375"/>
<path d="M50.5 35.1875C50.8128 35.1875 51.1032 35.0926 51.3196 34.9303C51.5361 34.768 51.6875 34.5294 51.6875 34.25C51.6875 33.9706 51.5361 33.732 51.3196 33.5697C51.1032 33.4074 50.8128 33.3125 50.5 33.3125C50.1872 33.3125 49.8968 33.4074 49.6804 33.5697C49.4639 33.732 49.3125 33.9706 49.3125 34.25C49.3125 34.5294 49.4639 34.768 49.6804 34.9303C49.8968 35.0926 50.1872 35.1875 50.5 35.1875Z" fill="#2D2D2D" stroke="#2D2D2D" stroke-width="0.375"/>
</svg>
