<svg width="120" height="72" viewBox="0 0 120 72" fill="none" xmlns="http://www.w3.org/2000/svg">
<g id="woocommerce-icon">
<g id="Group 25">
<path id="Vector" d="M73.7859 59.1321H72.3018L72.8591 60.5075L76.5961 69.732L57.9384 59.26L57.7105 59.1321H57.449H11.1857C5.56405 59.1321 1.00036 54.5435 1.00036 48.8571V11.275H1.00039L1.00033 11.267C0.955486 5.63506 5.51573 1 11.1369 1H108.814C114.436 1 119 5.58859 119 11.275V48.8571C119 54.5435 114.436 59.1321 108.814 59.1321H73.7859Z" stroke="#2D2D2D" stroke-width="2"/>
</g>
<path id="Vector_2" d="M34.8208 33.186C37.1216 40.3739 40.1717 45.9312 43.9769 49.7955C45.2208 51.0782 46.6333 51.7674 48.1055 51.6549L48.1055 51.6549L48.1142 51.6541C49.4261 51.5408 50.4608 50.8367 51.1148 49.645L51.1149 49.645L51.1211 49.6333C51.6454 48.6433 51.8391 47.5233 51.7423 46.3085C51.4894 42.4832 51.8687 37.0871 52.9482 30.0917C54.0736 22.8648 55.4439 17.7836 57.0557 14.826L57.0585 14.821C57.4904 14.0161 57.6478 13.2044 57.5963 12.2827L57.5955 12.2688L57.5943 12.2549C57.486 11.0177 56.9297 9.9743 55.9135 9.17691C54.9347 8.40894 53.8076 8.02279 52.5648 8.12816C50.9981 8.23788 49.7805 9.02355 48.9915 10.4848C46.542 14.9241 44.7592 21.6979 43.5975 30.7609C42.5217 27.5025 41.5843 23.8355 40.8037 19.7083C40.5492 18.352 40.0881 17.2196 39.3243 16.4396C38.5271 15.6254 37.4909 15.2871 36.3157 15.3666C34.5883 15.4814 33.2824 16.6393 32.3379 18.4229L32.3375 18.4236L23.9404 34.3147C22.5915 28.5523 21.311 21.7154 20.1297 13.8012C19.959 12.5484 19.5018 11.4898 18.6438 10.784C17.7821 10.0753 16.6606 9.84094 15.4118 9.93776C14.0133 10.0377 12.8369 10.5516 12.0393 11.6213C11.2751 12.603 10.9668 13.8422 11.1743 15.183L11.1748 15.186C13.7314 31.336 16.1275 42.3293 18.3787 48.0765L18.3826 48.0863L18.3866 48.0959C18.8413 49.1806 19.363 50.0673 19.9868 50.6806C20.6314 51.3144 21.4125 51.6774 22.3054 51.612C23.5803 51.521 24.7801 50.6324 25.9082 49.3382C27.0633 48.0132 28.2821 46.1019 29.5748 43.6412L29.5811 43.6293L29.587 43.6172C30.763 41.2041 32.5072 37.7277 34.8208 33.186ZM99.1629 13.0568L99.1623 13.0566C98.287 12.8735 97.4452 12.7792 96.6391 12.7792C92.0965 12.7792 88.4584 15.1615 85.6936 19.6657C83.35 23.4731 82.18 27.6857 82.18 32.283C82.18 35.7247 82.9001 38.7298 84.3812 41.2612C86.0714 44.1989 88.5856 45.9863 91.9041 46.6831L91.9047 46.6833C92.7801 46.8664 93.6218 46.9607 94.428 46.9607C99.0119 46.9607 102.653 44.5803 105.377 40.0686C107.716 36.223 108.886 32.0146 108.887 27.4194C108.931 23.9221 108.163 20.9592 106.684 18.4757C104.994 15.5398 102.48 13.7533 99.1629 13.0568ZM99.586 30.6711L99.585 30.6755C99.0032 33.4017 97.9874 35.3165 96.5697 36.5731L96.568 36.5747C95.3991 37.6162 94.5066 37.8802 93.8244 37.7461C93.2228 37.62 92.5247 37.0618 91.9186 35.4956L91.9179 35.4938C91.4333 34.2496 91.1981 33.023 91.1981 31.8952C91.1981 30.8621 91.2816 29.8518 91.4809 28.94C91.8459 27.2885 92.5345 25.6764 93.6336 24.1389L93.6401 24.1298L93.6464 24.1205C94.9965 22.1282 96.2069 21.6238 97.2455 21.8221C97.8464 21.9493 98.5433 22.5082 99.1485 24.072L99.1492 24.0738C99.6337 25.3179 99.869 26.5445 99.869 27.6724C99.869 28.7499 99.7853 29.7601 99.586 30.6711ZM72.025 13.0573L72.0219 13.0566C71.1465 12.8735 70.3047 12.7792 69.4986 12.7792C64.9557 12.7792 61.3174 15.1618 58.5525 19.6667C56.2093 23.4738 55.0395 27.6861 55.0395 32.283C55.0395 35.7247 55.7596 38.7298 57.2408 41.2612C58.9309 44.1989 61.4451 45.9863 64.7636 46.6831L64.7643 46.6833C65.6396 46.8664 66.4814 46.9607 67.2875 46.9607C71.8715 46.9607 75.5124 44.5803 78.2364 40.0686C80.5765 36.2215 81.7466 32.0113 81.7466 27.4138C81.7466 23.9314 81.0274 20.9672 79.5439 18.4761C77.8518 15.5367 75.2935 13.7534 72.025 13.0573ZM98.9814 13.9215L98.9814 13.9214L98.9814 13.9215ZM72.4022 30.6711L72.4012 30.6755C71.8194 33.4017 70.8036 35.3165 69.3859 36.5731L69.3842 36.5747C68.2154 37.6162 67.3228 37.8801 66.6406 37.7461C66.039 37.62 65.3409 37.0618 64.7348 35.4956L64.7341 35.4938C64.2495 34.2496 64.0143 33.023 64.0143 31.8952C64.0143 30.8621 64.0977 29.8518 64.2971 28.94C64.6621 27.2885 65.3506 25.6764 66.4498 24.1389L66.4563 24.1298L66.4626 24.1205C67.8126 22.1282 69.0231 21.6238 70.0617 21.8221C70.6626 21.9493 71.3595 22.5082 71.9646 24.072L71.9653 24.0738C72.4499 25.3179 72.6851 26.5445 72.6851 27.6724V27.6896L72.6858 27.7067C72.7257 28.7371 72.6063 29.7377 72.4022 30.6711Z" stroke="#2D2D2D" stroke-width="1.77778"/>
</g>
</svg>
