<svg width="76" height="76" viewBox="0 0 76 76" fill="none" xmlns="http://www.w3.org/2000/svg">
<path d="M74.875 38V37.9993C74.8579 17.6342 58.3498 1.125 38 1.125C17.6339 1.125 1.125 17.6339 1.125 38C1.125 58.3661 17.6339 74.875 38 74.875C58.3661 74.875 74.875 58.3661 74.875 38ZM38.6097 43.5124L47.839 68.7949C44.7301 69.8014 41.4347 70.33 38 70.33C35.1405 70.33 32.3756 69.9608 29.7398 69.2587L38.6097 43.5124ZM57.0614 46.8033L54.5372 55.2301L43.7607 23.2159C44.3403 23.1728 44.8696 23.1269 45.3026 23.0867C45.6555 23.054 45.9453 23.0249 46.1472 23.004C46.2482 22.9935 46.3273 22.9851 46.3814 22.9792L46.4435 22.9724L46.4597 22.9706L46.464 22.9702L46.4652 22.97L46.4655 22.97L46.4657 22.97L46.3682 22.1004L46.4657 22.97L46.4737 22.969C47.1492 22.887 47.6921 22.5634 48.0452 22.086C48.3876 21.6232 48.5176 21.0631 48.477 20.5408C48.4363 20.019 48.2212 19.4858 47.8095 19.0848C47.3839 18.6702 46.7948 18.4437 46.1179 18.482L46.1088 18.4826L46.0996 18.4833L46.0995 18.4833L46.0988 18.4833L46.0961 18.4836L46.0848 18.4844L46.0397 18.4879L45.8643 18.501C45.7112 18.5124 45.4884 18.5286 45.21 18.5482C44.6531 18.5872 43.8746 18.6393 42.9884 18.6914C41.2113 18.7958 39.0191 18.8991 37.3138 18.8991C35.7095 18.8991 33.5431 18.7958 31.7647 18.6914C30.8783 18.6393 30.0933 18.5872 29.5299 18.5481C29.2483 18.5286 29.0222 18.5123 28.8667 18.501L28.6883 18.4878L28.6424 18.4843L28.6308 18.4835L28.628 18.4832L28.6273 18.4832L28.6272 18.4832L28.5607 19.3556L28.6272 18.4832L28.6184 18.4825L28.6097 18.482C27.9182 18.4432 27.3241 18.685 26.9007 19.1116C26.4929 19.5225 26.2824 20.0633 26.2426 20.5862C26.2028 21.1084 26.3286 21.6764 26.6772 22.1405C27.0356 22.6178 27.5872 22.9262 28.2646 22.9722L28.3192 22.9785C28.3701 22.9844 28.4443 22.9928 28.5388 23.0033C28.7278 23.0243 28.9981 23.0533 29.3248 23.0861C29.8394 23.1377 30.4962 23.1987 31.1967 23.2514L36.0692 36.6073L29.7283 55.6447L18.8231 23.2159C19.4029 23.1728 19.9323 23.1269 20.3654 23.0867C20.7183 23.054 21.008 23.0249 21.21 23.004C21.311 22.9935 21.3901 22.9851 21.4442 22.9792L21.5062 22.9724L21.5225 22.9706L21.5268 22.9702L21.528 22.97L21.5283 22.97L21.5284 22.97L21.431 22.1004L21.5285 22.97L21.5365 22.969C22.2118 22.887 22.755 22.5634 23.108 22.0856C23.4504 21.6223 23.5798 21.0614 23.5374 20.5381C23.4951 20.0151 23.277 19.482 22.8622 19.0818C22.4338 18.6686 21.8428 18.444 21.1644 18.482L21.1549 18.4826L21.1454 18.4833L21.2134 19.3556L21.1454 18.4833L21.1453 18.4833L21.1446 18.4834L21.1419 18.4836L21.1306 18.4844L21.0857 18.4879L20.9108 18.501C20.7582 18.5124 20.5359 18.5287 20.2582 18.5482C19.7027 18.5872 18.9258 18.6393 18.0407 18.6914C16.2658 18.7958 14.0735 18.8991 12.3598 18.8991C12.2039 18.8991 12.0401 18.898 11.8695 18.8961C17.7566 10.857 27.2536 5.63651 37.9665 5.63651C45.6619 5.63651 52.7173 8.3277 58.2663 12.8061C55.3878 13.6192 53.5267 16.4369 53.5267 19.3389L53.5267 19.3442C53.5439 22.1776 55.0458 24.5832 56.5677 27.0208C56.6884 27.2141 56.8092 27.4076 56.9295 27.6015C58.1633 29.7741 59.5518 32.4519 59.5518 36.3096C59.5518 38.998 58.7409 42.4627 57.0837 46.7382L57.0713 46.7703L57.0614 46.8033ZM5.65324 38C5.65324 34.1011 6.35039 30.3712 7.61441 26.9121L21.9039 66.0535C12.183 60.4666 5.65324 49.9914 5.65324 38ZM56.3324 64.6076L65.6654 37.6695C67.4006 33.3184 68.1069 29.7147 68.2281 26.4944C69.5868 30.065 70.33 33.9348 70.33 37.9833C70.33 49.0259 64.786 58.7845 56.3324 64.6076Z" stroke="#2D2D2D" stroke-width="1.75"/>
</svg>
